<svg id="Layer_1" data-name="Layer 1" xmlns="http://www.w3.org/2000/svg" viewBox="0 0 1384.81 1803.59"><defs><style>.cls-1{stroke:#000;stroke-width:0.5px;}</style></defs><title>Forest skull </title><path class="cls-1" d="M1439.85,833.44c2.22,1.9,5.7.9,5.9,4,.15,2.38-2.49,3.16-4,4.61-1.92,1.91-6,3.24-4.93,6.12,1.2,3.13,5.31,1.55,8.11,1.57,4.43,0,8.86-.52,12.63,2.54,2.88,2.35,5.05,5.12,3.74,9.09s-4.68,4.71-8.48,4.81c-9,.23-16-5-23.56-8.58-5.53-2.59-5.86-2.56-6.73,3.47-.59,4.12.29,8.05,1.1,12,.35,1.71.69,3.74-1.71,4.3-2.22.51-3.06-1.12-3.69-2.9a31.07,31.07,0,0,1-1.3-18.2c.91-3.67-.46-5.06-3.67-6.07-8.53-2.69-17.48-2.74-26.15-3a127.3,127.3,0,0,0-39.19,4.64c-2.76.79-6,1.51-6.23,4.8s2.72,4.82,5.21,6c8.9,4.35,18.19,3.81,27.36,1.24,11.21-3.14,22.58-3.58,34.06-3,1.94.11,4.84-.35,5.12,2.47.24,2.35-2.38,2.79-4.15,3.35-5.1,1.61-9.92,3.12-11.92,9.16-.91,2.77-4.57,1.94-7.11,2.4-1.64.29-4.24-.77-4.73,1.09-.58,2.25,2.33,2.59,3.75,3.73s2.92,2,4.21,3.17,2.08,2.55,1.12,4.23-2.64,1.65-4.21,1.13a35.24,35.24,0,0,1-5.36-2.19c-3.28-1.71-6.43-3.68-9.72-5.36-1.8-.92-4-3.06-5.71-1.44-2.05,2,.82,3.6,1.71,5.32.54,1,1.94,1.91,1.14,3.24-.93,1.54-2.49.9-3.83.57-1-.25-2-.77-3-1-1.76-.33-3.85-2.52-5.2-.44-1,1.55,1.36,2.93,2.29,4.34.48.73,1.2,1.29,1.74,2,1.53,2,5,3.07,3.86,6.28-1,2.95-4.36,2.46-7.22,3.33a52.37,52.37,0,0,1,3.94,6.57c2.07,4.93.13,7.39-5.2,6.88-6.43-.6-12.16-3.5-18.06-5.74-13.48-5.11-26.62-11-40.58-15-9.53-2.72-18.79-4.3-28.57-2.17-3.59.78-7.31,1-11.57,1.52a12.51,12.51,0,0,0,7.52,3.49c4.18.58,8.41.87,12.58,1.54a31.85,31.85,0,0,1,7.1,2c3.2,1.33,6,3.31,5.75,7.35-.26,3.8-3.16,5.32-6.31,6.24a48.59,48.59,0,0,1-23.54.6c-10.68-2.17-20.78-5.71-28.31-14.16-1.75-2-2.78-.4-4,.36-4.16,2.66-8.17,5.57-12.83,7.31-2.33.88-5,1.7-6.91-.48-2.07-2.34-1-5,.41-7.35s3.12-4.6,5.2-7.63c-7.56,1.74-13.92,4.16-19.2,8.72-4.81,4.16-10,7.24-16.51,7.34-2.3,0-3,1.07-3.32,3.11-1.87,12.75-3.48,25.52-2.08,38.42,1.49,13.75,8.22,21.79,20.45,25.29a6.63,6.63,0,0,0,6.38-1.11,59.39,59.39,0,0,0,13.11-12.94c7.74-10.72,15.33-21.53,20.25-33.95.94-2.37,1.76-5.38,5.2-5.12,3,.23,3.65,3,4.45,5.28,1.73,5,3.64,9.94,5,15a110,110,0,0,0,19.67,39.45,30.76,30.76,0,0,1,5.15,8.57c3.66,10.75,11.09,18.71,18.86,26.4s11.6,16.44,11.74,27.33c.3,22.34,7,43.31,14.33,64.14,4.81,13.59,11.16,26.68,13.75,41,.37,2.08,1.06,4.17,1,6.24-.83,22.57,4.79,44,11.52,65.21,8.8,27.8,12,56.42,12,85.47v15.21l1.41.58c1.83-2.17,3.71-4.3,5.47-6.52a99.7,99.7,0,0,1,39.93-30.41c19.66-8.27,37.59,2.33,40,23.46,2.26,19.91-.68,39.77-.57,59.67.19,31.78-4.62,63.22-7.4,94.79-.94,10.7-2.06,21.38-3.74,32a146.33,146.33,0,0,1-12.89,41.72c-9.2,18.87-16.12,38.65-22.89,58.47-6.86,20.11-18.54,36.28-37.57,46.51-6.93,3.72-11.6,9.47-15.63,16-20.53,33.5-36,69.3-49.47,106.12a335.75,335.75,0,0,1-22.09,47.95c-5.61,10.09-14.16,15.29-25.06,17.49a93.74,93.74,0,0,1-29,.86c-11.68-1.28-22.82.3-33.38,5.64-22.42,11.34-46,17.63-71.33,15.71a6.77,6.77,0,0,0-4.91,1.49c-12.79,10.15-27.78,14-43.67,15.46-25.61,2.33-51.16,5.35-76.85,6.65-3.15.16-5.75,1.52-8.32,3.07-13.12,7.9-26.16,15.85-40,22.52-23.82,11.45-46.13,8.18-67.86-4.87-10-6-18.6-13.94-26.86-22.15a11.55,11.55,0,0,0-7.23-3.73c-10.81-1.21-20-6.52-28.95-12.24-8.06-5.19-15.83-7.93-26-5.73-13.12,2.83-26.75,2.1-39.9-1-23.94-5.73-40.24-20.79-50.53-42.81-4.55-9.75-8-19.92-11.57-30.06-2.14-6.12-2.27-6.32-8.24-3.27-27.43,14-53.2,30.44-75.84,51.51-2.62,2.43-6.28,7.09-9,4.3-3.13-3.21,2.15-6.18,4.52-8.59,22.9-23.33,50.57-39.76,79.55-54.17,3.79-1.88,4.52-3.31,3.2-7.41-9.35-29-20.24-57.19-39.11-81.53-13.81-17.83-28.08-35.31-41.85-53.17-3.71-4.82-7.57-7.86-14-7.36a25.41,25.41,0,0,1-8.86-1.27,140,140,0,0,0-37.34-5.43c-24.21-.5-45-10.93-63-26.5-29.88-25.77-41.91-59.62-42.62-98.11-.2-10.67,3.45-20.76,6.9-30.79,6.34-18.49,13.08-36.89,14.71-56.61.13-1.53.84-3.07-.3-5.1A122.57,122.57,0,0,1,420,1412.91a154,154,0,0,1-26.5,4.71,14.91,14.91,0,0,1-2.11.1c-3.07-.16-7.71.72-8-3-.29-4,4.48-3.75,7.43-3.82,8.52-.19,16.81-1.81,25.07-3.62a114.79,114.79,0,0,0,32.82-12.92,11.16,11.16,0,0,0,5.8-8.18c3.81-18.56,10.77-35.85,23.31-50.28a94.89,94.89,0,0,1,44.63-29c21.74-6.62,43-14.61,64.28-22.52,4.14-1.54,4.58-3.58,2.87-7a254.88,254.88,0,0,0-28.77-44.82c-1.76-2.24-4.25-3-6.86-3.61-6.54-1.4-13.08-2.82-19.64-4.15-6.39-1.3-11.93-3.93-13.81-10.7s1.13-12.37,5.67-17.23c1.94-2.08,4.11-4.15,6.77-5,5.8-1.71,4.23-4.09,2-8.1-3.28-5.84-7.37-9.24-14.22-9.58a23,23,0,0,1-10.4-3.64c-2.57-1.54-4.77-3.72-4.61-6.66.35-6.13-2.28-4.56-6-3.16-10,3.8-20.06,4-29.33-2.25-10.33-7-12-17.74-4-27.23,11.24-13.21,26.36-19.63,42.92-23.14a121.53,121.53,0,0,1,21.53-2.23c2.81-.08,3.87-.33,2.16-3.52-4.65-8.72-3.59-16.78,3.09-24.36,9.35-10.63,21.87-15.36,35.37-17.18,15-2,29.88-.64,44,5.52,1.18.52,2.61,2,3.77.87s.55-3.07,0-4.53a42.4,42.4,0,0,0-5.48-9.61c-1.6-2.11-3.24-4.18-4.76-6.34-4.87-7-5.07-14.08-.4-21.22,6.07-9.28,15-14.83,25.21-18.27,5.08-1.71,6-3.73,4.31-8.71-2.76-8.15-6.42-15.6-12.24-22a7.43,7.43,0,0,0-8-2.48c-8.35,1.85-26-5.83-30.28-13-2.64-4.4-1.24-8.58,1.73-12.21,4.23-5.16,9.86-8.51,15.94-11a68.45,68.45,0,0,1,20.94-5.22c2.44-.18,4.31-.79,5.65-3.1a104.93,104.93,0,0,1,26.63-30.44c.53-.41,1.22-.78.82-2-17.46-.6-34.55,4.56-52.79,5.1a8.44,8.44,0,0,1,5.93-4.91c23.47-7.1,47-13.73,72-12.68a117.61,117.61,0,0,1,31.21,5c4.54,1.46,5.09-.05,4.72-4-.79-8.42-1.45-16.86-1.89-25.3-.5-9.38-5.34-16.67-11-23.49-11.24-13.49-24.81-24.42-39.46-35.28-1.2,8.88-7.26,12-14.66,13.89-2,.49-3.64,2.15-5.6,2.85-1.72.61-4,5.91-5.52-.43-.39-1.59-2.48-.36-3.65.31-5.79,3.28-10.71,7.38-13.45,13.7a67.33,67.33,0,0,1-4,7.43c-.61,1-1.44,2.17-2.89,1.93s-1.62-1.65-2-2.8c-.61-1.75.15-3.92-1.61-5.36-1.89.74-2.37,2.58-3.31,4-2.23,3.38-4.3,6.89-7.26,9.71-2.3,2.19-5.23,5.39-8.06,3.75s.46-5,.79-7.6c.25-2,2.25-4.32.28-5.92-2.26-1.83-4.17.57-6,1.73-3.14,1.94-6.23,4-9.41,5.86-1,.62-2.38,1-3.48.13s-.41-2.26,0-3.38.84-1.94,1.22-2.93c1-2.66,1.3-4.81-2.76-3.46a4.78,4.78,0,0,1-5-.73c-1.9-1.69-5.53-2.79-4.82-5.63s4.24-1.79,6.54-1.81c11.86-.11,23.52-.76,34.46-6.25a41.46,41.46,0,0,0,15.44-13.28c-2.78-1.13-3.68.52-4.79,1.43-1.77,1.46-3.28,3.23-5.11,4.58-1.48,1.1-3.45,2.87-5.14,1.21s.54-3.16,1.42-4.51a90.07,90.07,0,0,0,5.5-8.78c-3.79,1.11-5.72,4.3-8.3,6.74-2.42,2.3-5,4.49-7.53,6.62-.93.76-2.14,1.49-3.37.62s-.48-1.91-.12-2.86c1.4-3.62.18-4.08-3-2.79a14.3,14.3,0,0,1-8.81.9c-1.55-.39-3.25-.83-3.55-2.69s1.36-2.81,2.76-3.41c8.25-3.58,15.31-9.4,23.84-12.46,2.34-.83,5-1.71,6.23-4.65a7.6,7.6,0,0,0-1.77-.27c-1.86.23-4.43,2-5.39.19-1.2-2.18,1.71-3.38,3.08-4.89,4.7-5.18,11-7.79,17.73-10.7-4.81-3.61-9.27-3.79-14-2-3.12,1.16-6.26,2.55-9.72,1.52-1.37-.4-2.8-1-2.91-2.65-.09-1.48,1.22-2,2.3-2.58,2.7-1.31,5.48-2.44,8.13-3.82,2.47-1.28,2.75-2.78.48-4.82a78.75,78.75,0,0,0-11.2-7.93,145.41,145.41,0,0,1-17.76-12.39,46,46,0,0,1-5.92-6c-1.51-1.86-3.4-4.11-1.33-6.6a5.4,5.4,0,0,1,7.28-.89c4,2.83,7.56,4.74,12.8,3,2.65-.9,5.16,2,6.82,4.27,3.51,4.84,6.75,9.88,10.15,14.81,1.08,1.58,2.12,3.5,4.44,3.21s2.73-2.5,3.59-4.19c.24-.47.3-1,.56-1.48,1-1.85.82-5.5,3.79-4.77,3.26.8,2.29,4.19,2.13,6.8-.11,1.63-1.63,3.77.45,4.77,1.87.9,3-1.35,4.34-2.32,1.65-1.17,3.18-3.58,5.42-1.87,2.07,1.58,1.52,4.19.72,6.37-.66,1.81-1.77,3.44-2.54,5.22a7.24,7.24,0,0,0,3.9,9.19c2,.8,2-.59,2.37-1.7,1.33-4.42,3.65-8.37,5.77-12.42,3.84-7.34,9.94-12.17,17.31-15.58,1-.45,2-1.07,3-.28,1.39,1.14.19,2.21-.31,3.25-.37.76-.79,1.5-1.42,2.69,3.15.29,4.53-1.76,5.86-3.35,5.48-6.52,12.73-11.11,18.61-17.18,1-1.07,2.4-2.5,4.11-1.27,1.48,1.07,1.19,2.8.92,4.39-.6,3.6-3,6.26-5.13,8.83.44.61.57,1,.83,1.12,1.5.81,4.25-.63,4.65,1.44.48,2.44-2.23,3.3-4,4.24-4.63,2.42-9.36,4.66-14.05,7l.39,1.31c3-.79,6-1.66,9.05-2.32,1.42-.32,3.37-1.71,4.28.13s-1.13,3.17-2.51,4.07c-2.19,1.45-4.63,2.52-6.94,3.81a2.1,2.1,0,0,0-1.15,2.61,26.18,26.18,0,0,0,14.24-7.22c6.2-6.23,12.11-12.77,14.77-21.56a90.19,90.19,0,0,1,4.79-11.73c1.17-2.52,2.79-2.71,3.89.1s3.08,5.75.56,8.91-.13,3.25,2.23,3.4c2,.13,4.93-1.46,5.73,1,.9,2.72-2.21,4-4,5.54-2.18,1.79-4.58,3.29-6.8,5-1.1.85-2.38,1.89-1.76,3.5.51,1.33,2,1.31,3.19,1.39,1.41.09,2.83.08,4.22.23,1.69.18,4.17-.65,4.78,1.22.77,2.34-1.59,3.67-3.28,4.85-5.16,3.62-11.59,3.79-17.15,5.86-.4,1.47.58,1.75,1.26,2.23,1.61,1.17,4.7,1.56,3.94,4.17-.63,2.17-3.52,2.19-5.54,2.31-7.61.43-14.5,2.42-20.35,7.62-2.59,2.3-3,3.83,1.35,5.32-4.22,2.81-7.68,5.4-10.26,8.95-1.17,1.59-2,2.89.32,4.25,16.67,9.81,31,22.59,45.1,35.65.21.19.65.14,1.06.21,7.23-35.85,8.59-72.42,12.2-109.76,3.69,2.45,3.44,4.82,3.59,6.92,2.19,31.45,4.51,62.89,7.73,94.26,2.11,20.58-.77,41.19-1.27,61.78-.41,17.28-.68,34.53,1.57,51.72.16,1.18-.09,2.51,1.18,3.45,2.51-1.61,3.44-4.36,4.76-6.77,11.27-20.62,15.31-43,15.7-66.18.21-12.16.3-24.31,2.06-36.39,1.61-11,6.15-20.33,14.83-27.73a38.92,38.92,0,0,0,14.21-28.5c.32-6.16.47-12.34,1.16-18.46a67.62,67.62,0,0,1,14-34.29c.65-.84,1.26-1.7,1.88-2.56,9.06-12.56,8.9-14.7-1.45-26.17-2.15-2.39-3.39-2.38-5,.51-4.79,8.38-4.87,8.32-11.68,1.51-1-1-1.84-2.42-3.49-1.83s-1.67,2.15-1.77,3.55c-.21,2.81-.25,5.63-.49,8.44-.12,1.49.39,3.49-1.53,4.1-1.74.55-3.25-.84-3.9-2.14-3-6-4.55-2.83-6.47.73-2.64,4.91-5.57,9.46-12.37,8.91-4.21-.34-4.78-2.26-3.08-5.55.88-1.71,2.1-3.25,3.06-4.92a86.31,86.31,0,0,0,4.51-8.35c1.06-2.46,1.65-5.37-1.21-7.1-2.57-1.56-4.76.16-6.6,1.84a16.85,16.85,0,0,0-3.37,4c-3.68,6.44-9.85,7.42-16.37,7.7-1.22.06-2.57,0-3.23-1.3-.79-1.56.12-2.85,1.19-3.72,2.59-2.1,5.32-4,8-6,3.6-2.58,7.22-5.17,8.86-9.51.62-1.66,1-3.78-.79-4.81-2.23-1.28-3.05,1-3.88,2.41-1.42,2.43-2.53,5.08-4.67,7-2.6,2.35-4.8,2.35-5.62-1.59-.56-2.7-.85-5.46-1.32-8.62-2.46,1-2.74,3.06-3.46,4.68-1.72,3.86-3.1,7.88-5,11.66-2.78,5.59-4.41,5.82-8.38,1.12-1.6-1.88-2.54-1.33-3.74,0-1.8,2.07-3.7,3.37-6.26,1.1-1.39-1.24-2.53-.57-3.68.46-1.45,1.28-2.88,2.6-4.45,3.73s-3.14,2-4.84.73-1.17-3.14-.71-4.88c.85-3.13,2.78-6,3.06-9.94-4.19,1.77-6.27,4.85-8.59,7.61-4,4.7-7.41,9.89-12.67,13.38-3.29,2.17-5.84,2.58-6.77-2.34-1.07-5.59-5-7.92-10.29-7.94-3.87,0-7.73.41-11.6.61-3,.16-6,.42-8.92-.52-2.1-.69-4.14-2-4.14-4.28s2.48-2.25,4.05-2.62c8.92-2.11,17.89-4,26.81-6.07,4.94-1.15,10-2.22,13.92-5.65-.08-1.8-1.49-1.43-2.34-1.73-3.36-1.13-3.21-3.06-.91-5,2.71-2.23,5.71-4.11,8.59-6.13,5.34-3.74,10.76-7.38,15.21-12.23.94-1,2.06-2.2,1.35-3.72-.86-1.83-2.68-1.56-4.18-1.2-6.24,1.52-12,4-16.67,8.63s-8.55,9.84-12.51,15c-1.06,1.38-2.12,3-4.23,2.6s-2.33-2.39-2.75-4.09c-1.39-5.65-3.12-6.61-8.46-4.49-2,.78-3.74,2-5.72,2.72-2.64.9-6.49,5.46-6.91-2-.1-1.72-2-1.76-3.45-1.29-2.34.78-4.62,1.73-6.91,2.64-4.48,1.79-9.11,2.87-13.94,2.06-4.29-.72-4.68-2.07-1.89-5.39,1.08-1.27,3.19-2.28,2.09-4.34-1-1.81-3.06-1.45-4.78-1.48-4.21-.07-8.47,1-12.62-.21-2.16-.65-5-1.45-5-4,0-2.87,3.16-3,5.29-3.23,10-1.25,19.81-3.23,29.71-4.88,15.83-2.65,30.85-7.26,44.65-15.5a19.61,19.61,0,0,1,20.64-.31c10.68,6,20.7,6.08,30.54-1.51,3.22-2.48,6.32-2.29,9.67.07,3.15,2.22,6.46,4.36,10.53,4.58,3.38.19,5.95-.51,5.91-4.76s2.8-5.33,6.4-5c5.14.43,9.85,2.6,14.75,4,12.19,3.38,24.4,4.89,37.07,2.91,6.07-.95,10.26-5.36,15.83-7,1.76-.52,1.12-2.39,1.06-3.7-.34-8.45-.87-16.9-1.11-25.35-.08-2.74-1.34-3.65-3.77-4-8-1.12-16-2.46-24.06-3.47a20.53,20.53,0,0,0-12.83,2.3,50.9,50.9,0,0,1-20.6,6.12,8.43,8.43,0,0,0-6.81,4.24c-19.17,30.08-55.09,23-74.15-2.72-1.21-1.64-2.93-3.9-.71-5.58s3.87.58,5.16,2.22c10.18,12.93,23.4,19.32,39.91,19,10-.21,16.63-5.61,23.27-14.39-3.66.88-5.89,1.43-8.13,2-4.08.94-8,.8-11.75-1.39-1.43-.85-2.6-2-2.36-3.81s1.58-2.66,3.26-3c2.91-.67,5.9-1.13,8.72-2.08,7.88-2.64,15.45-6,21.8-11.54,3.76-3.29,8.2-5.44,12.5-7.84,1.32-.74,3.2-1.63,2.56-3.51s-2.81-1.9-4.54-1.68c-4,.49-7.1,3-10.13,5.39-4.12,3.3-8,6.94-12.32,9.93-2.63,1.82-6,4.05-9.24,1.94-3-2-3.73-5.34-2.87-9,.73-3-1.24-2.79-3.09-2.23a67.07,67.07,0,0,0-12.9,6c-7.17,4-8.93,3.48-12.28-3.92-1.59-3.51-4-4.64-7.63-3.94-5.83,1.13-11.63,1.07-17.16-1.21-3.17-1.31-7-2.51-4.5-7.57,1.12-2.24-1.39-2.81-2.59-3.94-1.43-1.34-4.77-1.87-3.85-4.18.85-2.12,3.8-.57,5.81-.66s4.24.21,6.33,0c3-.31,3.52-2,1.86-4.38-2-2.82-5.13-4.23-7.74-6.31s-6.6-4.63-5.18-7.75c1.51-3.34,5.76-.7,8.54,0,8.27,2.08,15.25,7.2,23.06,10.43,2.56,1.06,5.16,3.66,6.63-1.51.61-2.16,3.39-1.56,5.19-1,4.06,1.15,8,2.65,12.07,3.88,5.6,1.71,11.22,2.18,16.89.12-.2-.82-.18-1.24-.38-1.45-1.6-1.71-5-2.38-4.38-5.38s3.9-3.14,6.28-4.11c3.77-1.55,8.28-1.36,12.39-5.57-7.2-.23-13.06-.07-18.53,3.16-2,1.15-4,2.5-6.42,1.89-3.5-.88-4.47-6.24-1.48-9.15,1.86-1.82,4.27-3.07,6.37-4.66.94-.72,2.33-1.54,1.75-2.92-.67-1.61-2.14-.6-3.23-.36-5,1.08-10,2.28-15,3.36a17.46,17.46,0,0,1-4.2.42c-2.55-.06-5.86.65-6.53-2.85-.59-3.07,2.1-4.08,4.55-4.86a3,3,0,0,0,2.38-2.33c-3.7-1.59-7.79-.94-11.6-1.76s-8.95-.94-8.76-5.81c.22-5.34,5.73-4.16,9.3-4.43,6.21-.48,12.18,1.62,18.24,2.65a20.86,20.86,0,0,0,15.2-2.49,41.71,41.71,0,0,1,34.75-3.15c9.17,3.14,18.31,6.36,27.48,9.48,4.51,1.53,9.06,2.85,13.92,2.77,2.41,0,3.48-.77,3.48-3.35,0-12.34,0-24.67.16-37,.06-3.65-1.91-4.16-4.65-3.88-5.94.62-11.84,1.66-17.8,2-13,.78-26,1.14-39.05-.21A34.23,34.23,0,0,1,754,458.1c-1.72-1.11-3.08-2.48-2.69-4.73s2.28-2.95,4.22-3.41a28.3,28.3,0,0,1,10.5-.12c5.76.8,11.53,1.65,17.36.72,2.28-.36,4.53-.8,6.38-2.3.83-.67,1.7-1.42,1.55-2.6S790.08,444,789,444c-4.68-.19-8.72-1.2-12.23-5-2-2.12-5.77-.9-8.69-.39a48.6,48.6,0,0,1-23-1.54c-1.79-.55-4.25-1-4.18-3.38.08-2.68,2.78-2.14,4.54-2.51,3.44-.74,7-1,10.33-2.06,3.9-1.27,4.19-4,1-6.65s-7.46-3.12-11.46-3.46c-7-.6-11.65-4.52-15.15-10.18-1.59-2.58-3.25-5.41-1.37-8.36s5-2.12,7.76-1.77a41.63,41.63,0,0,1,13.12,3.89c7.12,3.49,14.17,7.12,21.28,10.62,5.71,2.82,11.55,5.26,18,6a15.24,15.24,0,0,0,7.32-.47c1.77-.68,4.21-1.26,4.05-3.53s-2.68-1.85-4.3-2.09c-5.92-.89-11.91-1.42-17.35-4.3-1.58-.84-3.41-1.48-3-3.74s2.45-2.43,4.18-2.28c6.78.61,13.27-.91,19.88-2.06,8.08-1.41,15.64,1.72,23.23,3.91,9.61,2.77,9.65,2.83,10.44-7.26.53-6.85.78-13.72,1.38-20.56.25-2.79-.77-4.06-3.31-5.06-4.13-1.64-8.25-3-12.75-3.07-1.9,0-3.63,0-2.3-2.93,1-2.28-1.14-2.59-2.65-2.82-6.16-1-12.29-1.22-18.11,1.67a37,37,0,0,1-3.83,1.8c-2.57.93-5.6,3.56-7.82,1.58-2.77-2.46,1.19-4.84,1.75-7.38a6.71,6.71,0,0,0-.22-1.61c-3.88,1.16-7.61,2.64-11.49,3.34-5.25.94-10.89,3.64-15-3.06-1-1.68-4.35-.59-6.6-.4-28.17,2.39-51.35,15.07-71.08,34.75a80.1,80.1,0,0,0-11.26,13.95c-1.16,1.84-2.44,4.9-5.07,3.34-3-1.8-.53-4.41.59-6.38a38.1,38.1,0,0,1,5.38-7.8c2.79-2.9,2-4.91-.3-7.56-14.55-16.73-33.2-25.31-54.95-27.12-14-1.16-27.8-.09-41,5.61-9.48,4.1-15.27,11-17.2,21.16a19.53,19.53,0,0,1-.89,3.58,2.79,2.79,0,0,1-3.36,1.9c-1.44-.29-1.9-1.47-2-2.76a15.45,15.45,0,0,1,.08-2.63c.57-6.33-.41-7.39-6.81-7.24-5.27.12-9.92,2.27-14.45,4.66-15.69,8.32-25.69,21-29.58,38.47-1.26,5.67-.44,11.19.54,16.77.48,2.72,2.23,2.61,4.21,2.79,10.1.92,19.29,4,26.56,11.48a17.38,17.38,0,0,1,2.13,2.34c1.59,2.41,4.7,5.32,1.76,7.79s-4.29-1.69-5.87-3.43c-9.17-10-25.47-14.61-37.19-10.33a22.36,22.36,0,0,0-6.93,3.77c-5,4.19-4.91,5.16.12,9.21a36.81,36.81,0,0,1,4.91,4.76,2.46,2.46,0,0,1,0,3.39c-1,1-2.3.75-3.43.16a15.09,15.09,0,0,1-2.13-1.56c-14.68-11.4-30.87-12.91-48-6.9-27.8,9.79-45.33,38.65-40.27,66.08a45.61,45.61,0,0,0,13,24.9c1.55,1.52,4.17,3.43,2,5.59-2,1.94-4.23-.2-5.95-1.71a42,42,0,0,1-11.35-15.71c-1.11-2.68-2.39-3.21-5.21-2.29-23.2,7.52-32.67,33.43-19.5,54,15.22,23.71,51,28.61,69.83,8.7,1.43-1.52,3-4.29,5.59-1.89,2.93,2.69.41,4.77-1.36,6.65-17.82,18.93-52.28,18.36-72.22-1.18-1.24-1.22-2.23-2.7-4.11-5-3.55,10.37-4,19.4-.72,28.47,5.74,16,21.67,27.29,39.44,28,19.16.83,35.93-8.7,43.37-24.5a9.57,9.57,0,0,0,.5-6.08c-1.31-8-1.13-15.82,2.34-23.3.86-1.84,1.74-4.64,4.28-3.8,2.87.94,1.32,3.46.7,5.4-8.43,26.47,10.18,55.66,37.75,59.23a27.81,27.81,0,0,0,28.65-14.7c1-1.76,1.32-4.46,4.07-4.14,2.29.28,2.55,2.64,3.22,4.43a39.85,39.85,0,0,0,14.4,19.11c8,5.62,16.06,5.49,24.18.27.74-.47,1.45-1,2.18-1.49,1.55-1.05,3.36-1.91,4.65-.06s0,3.33-1.42,4.58a12.24,12.24,0,0,1-1.65,1.32c-11.89,7.39-17.54,8.38-29.19,1.65-7.53-4.36-12.64-11.05-17-19.16-5,6.34-10.8,11.09-18.4,13-16.27,4.13-29.76-1.55-41.76-12.13A56.42,56.42,0,0,1,454,640.75c-1.06,1.53-1.77,2.51-2.45,3.53C439.4,662.52,417.61,670.64,396,665c-21-5.5-35.43-22.9-36.92-45-.22-3.22-.91-4.05-4.27-3.88-23,1.17-36.76-17.66-29-39.37,5.81-16.35,20.35-26.3,37.79-25.65a5.55,5.55,0,0,0,5-2.17,39.19,39.19,0,0,1,18.77-12.27c3.47-1,4-2.46,3.63-5.91A68.61,68.61,0,0,1,448,455.17c8-1.29,15.79-.14,23.45,2.27,2,.64,3.74,1.5,5.44-1,3.78-5.64,9.39-8.9,15.82-10.8,1.74-.51,3.47-.84,2.65-3.45-4.31-13.6.16-25.82,6.71-37.34,7.79-13.7,19.7-22.8,34.55-28a21.73,21.73,0,0,1,15-.18c2,.73,3.12.75,4.31-1.27,5.43-9.2,14.12-14,23.91-17.14,3.12-1,4.26-2.44,4.61-5.84,1.17-11.67,5.36-22.05,13.79-30.67,16.45-16.79,36.83-25,59.67-27.67a114.55,114.55,0,0,1,71.75,14.59c3.35,1.92,6.87,3.83,9.62,6.46,9.85,9.39,21.76,15.94,32.79,23.6A42.17,42.17,0,0,0,803.24,346c1.64-.26,3.59,0,4.63-2-1.27-1.94-3.16-1-4.8-1-1.93,0-3.87.38-5.8.3s-4.54-.09-4.82-2.29,2.41-2.13,4-2.64c3-1,6-1.74,10.28-2.95-3.34-1.79-5.66-1.18-7.89-.82a58.56,58.56,0,0,1-13.15.82c-1.22-.08-2.65-.18-3-1.67-.26-1.22.87-1.8,1.76-2.36,3.31-2.08,1.76-3-.83-3.9a15.13,15.13,0,0,1-7-4.49c-1.11-1.36-2.42-2.9-1.24-4.72,1-1.6,2.88-1.21,4.37-.8,8.49,2.39,17.47,2.27,25.84,5.27,2.24.8,4.66,1.47,7.14.61-.09-.57,0-1-.2-1.21-1.29-1.54-5-1.35-4.34-3.76s3.93-1.42,6.11-1.67a33,33,0,0,1,20.36,4c2.31,1.3,3.45,1.26,3.61-1.78.55-10,1.2-20.05,1.86-30.07a4.65,4.65,0,0,0-1.76-4.12c-8.76-7.84-18.7-12.45-30.7-11.9-2.63.13-5.29,0-7.93-.06a15.06,15.06,0,0,1-9.91-4.42c-.63-.59-1.33-1.29-1-2.27.34-1.14,1.47-1,2.19-.76,4.8,1.49,9.4-.23,14.08-.74,7.46-.82,14.18,1.33,20.68,5.13-6.23-10-4.63-22.77-13.46-32.54,5.41-.28,7.31,2.49,9.12,5.14,3,4.43,4.4,9.58,6.08,14.58,2.71,8.06,6.35,15.58,13.08,22.71.49-5.56,1-10.16,1.29-14.77q4-58.27,7.88-116.55c.18-2.62.61-5.24,1-7.85.21-1.48.82-2.85,2.59-2.77a3.3,3.3,0,0,1,3.44,2.72,45.78,45.78,0,0,1,.51,5.24c.81,14.77,1.12,29.56.76,45.61,6.92-5.44,13.82-9,19.73-14.26s7.53-13.46,13.6-20.26a47.38,47.38,0,0,1-9.93,28.53,45.94,45.94,0,0,1-8.77,9.11c-7.09,5.27-11.37,12.32-14.43,20.32a10,10,0,0,0-.57,3.58c-.13,31.72-.18,63.44-.36,95.15,0,3.87.35,5.57,4.87,3.55a28.4,28.4,0,0,1,19.63-1.44c1.78.49,4.48-.12,4.9,2.19.47,2.57-3.06,1.74-4,3.48.82,2.05,2.72,1.42,4,1.17,8.54-1.64,17.25-.43,25.81-1.68,1.78-.26,4.25-1,5,1.56.64,2.2-1.29,3.48-2.88,4.59a23.48,23.48,0,0,1-3.27,1.69c-2.28,1.1-8.21,0-2.89,5.5,1.53,1.56-.88,2.21-2.22,2.19-3.91-.05-7.65-1.11-11.4-2.09-2.16-.57-4.26-1.82-7-.68,2.73,2.7,6.4,3.06,9.29,4.81.87.53,2.13.86,1.84,2.2s-1.52,1.49-2.53,1.45c-2.09-.08-4.18-.41-6.27-.64-1.8-.19-3.6-1.52-6.33.63a36.6,36.6,0,0,0,18.11,3.17c11.12-.82,20.52-5.74,29.82-11.26,2-1.17,5.07-4.35,6.59-1.38,1.35,2.64-.45,6.47-3.54,8.58a3,3,0,0,1-1,.37c-4.19,1.08-2.53,2.65-.46,4.44,1.37,1.18,4.22,1.75,3.38,4.08s-3.57,1.76-5.61,1.76c-2.64,0-5.28-.3-7.92-.38-1.71-.05-3.81-.52-4.64,1.5-.74,1.81,1,2.78,2.15,3.85s2.39,2.09,3.52,3.2c.86.82,2.18,1.57,1.57,3s-2,1.42-3.16,1.52c-5,.4-9.23-1.86-13.58-3.77-1.9-.82-3.55-2.32-5.77-2.25-.2.34-.49.63-.5.92-.06,2.37,3.18,5,.79,6.78-2.59,1.87-5.29-.89-7.44-2.44a28.79,28.79,0,0,0-18.81-5.76c-1.83.09-4.27-.37-3.3,3,.63,2.18-1.14,1.59-2.25,1.64-14.28.57-14.29.57-14.62,14.59-.23,9.34-.28,18.68-.67,28-.14,3.48.58,5,4.5,5.08,7,.1,14.2-.22,19,6.74,1.08,1.58,3.8,2,5.92,1.7a29.19,29.19,0,0,1,17.42,3c1.33.65,2.93,1.25,4.48,0-.49-2.5-2.77-2.57-4.34-3.39-3.75-1.94-7.67-3.61-11-6.27-1.62-1.3-3.66-2.78-2.45-5.23,1.08-2.15,3.34-1.68,5.21-1.21,6,1.52,12,2.91,17.83,4.85,7.84,2.61,15.84,3.22,24,3.06,3.9-.07,6.77-.93,5.26-5.84-.81-2.6,1.26-4.64,1.54-7.44-4,0-8.14,3.55-11.71-1-.39-.48-3.64,1.46-5.63,2-2.85.84-6.22,3.14-7.11-2.43-.33-2-2.29-1.12-3.55-.88-2.6.51-5.2,1.07-7.84.46-1.42-.32-2.76-1.1-2.87-2.7-.14-1.93,1.53-2.06,2.89-2.38a20.89,20.89,0,0,0,3.08-.71,2.36,2.36,0,0,0,1.26-1.42c.22-.86-.69-1.21-1.32-1.33-2.24-.4-4.51-.75-6.78-1-6.31-.61-12.06-2.55-16.65-7.12-1.22-1.2-2.9-2.66-2-4.51s3.13-1.16,4.75-.79c3.94.89,7.81,2.14,11.76,3,3.15.65,5.7.22,5.12-4.16-.48-3.7,2.1-3.75,4.8-3.71,8,.14,15.63,2.47,23.38,4.1,2.06.43,4.17.65,6.26,1,2.43.38,3.64-.56,3.65-3.11,0-3.17.17-6.34.23-9.51.52-25.2,1-50.39,1.6-75.58a8.91,8.91,0,0,0-3.29-7.73,199.56,199.56,0,0,0-32.46-23.54c-10.43-6-19.42-13.46-24.16-25-.53-1.28-2.36-2.9-.44-4.16,1.46-1,2.46.87,3.45,1.74,7.81,6.83,15.62,13.63,26.07,18.6-3.77-10.22-6.4-19.82-10.53-28.9-.69-1.51-2.4-3.52-.84-4.73,2.11-1.65,3.37,1,4.57,2.26A53.69,53.69,0,0,1,919.64,233c3,6.77,6.1,13.48,8.91,20.32,3.63,8.83,10.52,14.72,17.51,20.65,2.15-1.49,1.41-3.42,1.45-5,.72-28.89,1.36-57.78,2.08-86.67a7.16,7.16,0,0,0-2.52-5.91c-6.39-6.2-13.74-10.93-21.34-15.42a36.41,36.41,0,0,1-11.06-9.7c-.9-1.22-2.46-2.65-.92-4.12,1.24-1.19,2.7.12,3.72,1,9.84,8,21.64,13,31.73,20.77,1.47-1.86.82-3.86.89-5.69.43-13,.76-26.07,1.15-39.1,0-1.51-.55-3.78,1.41-4.07,2.69-.4,2,2.43,2.42,3.84,6.62,22.8,5.65,46.38,6.86,69.72.31,6.08.05,12.19.88,18.59,15.67-21.12,41.14-26.88,60.37-41.83-1.08,6-5.09,10.67-18.7,22.89,8.75,2.18,16.84.78,25-1.42,2.68-.72,6.88-3.47,7.86-.55s-3.92,4.28-6.72,5.39c-7.75,3.06-16,3.22-24,2-14.8-2.28-25.82,4.16-36,13.73-5.78,5.44-7.81,11.44-7.46,19.57,1.89,43.3,3.14,86.63,4.59,130,.3,9,4,12.1,13.19,11,4.54-.55,8.9-2.28,13.55-2.05,2,.11,2.18-1.36,2.35-2.8.8-6.47,1.55-12.94,2.39-19.4.3-2.32-1-3.59-2.6-4.82-2.63-2.07-5.34-4-7.86-6.25a37.51,37.51,0,0,1-13.32-27.2c-.3-5.42-1.49-10.78-2.15-16.19-.13-1.07-.59-2.74,1.15-3,1.12-.16,1.68,1.09,2.21,2,3.38,5.78,4.36,12.26,5.15,18.72,1.27,10.4,6.82,17.83,15.17,23.67,2.85,2,3.64,1.53,4-1.87,2.68-22.38,5.5-44.76,8.32-67.13.5-4,1.18-8,1.87-12,.25-1.44.88-2.8,2.68-2.7s2.27,1.58,2.39,3c.3,3.51.54,7,.62,10.55q1.29,52.84,2.5,105.69c.17,7.29.2,7.42,6.7,5,5.15-1.94,9.91-3.24,14.56,1.37,1.82,1.81,4.8,2.08,7.45,2.4,15,1.81,29.86,2,44.59-1.88a55.75,55.75,0,0,1,6.74-1.33c1.8-.23,4.49-1.7,5.22.45.86,2.52-2.33,3-4,4-2.56,1.53-5.31,2.75-7.93,4.2-1,.57-2.41,1.13-2,2.69.3,1.25,1.67,1.07,2.58,1.5,2.41,1.15,7,1,6.57,3.95-.57,3.49-5.17,2.54-8.14,2.94a36.23,36.23,0,0,1-6.33-.09c-1.84-.08-3.33-.78-4.15,2.28-1,4-5,1.78-7.74,2-1.79.16-5.19-1.45-5,.31.27,2.9.19,7.53,3.84,8.42,11.13,2.69,22.43,1.7,33.61,0,3.19-.5,2.15-3.71,2.2-5.76.55-20.44.93-40.87,1.41-61.31,1.28-55.49,2.22-111,4.57-166.45,0-1.05.11-2.11.15-3.17a5.22,5.22,0,0,1,4.55-5c2.83-.27,2.44,2.94,2.53,4.83.69,15.32,1.22,30.64,1.86,46,.09,2.2-.3,4.5,1.13,7.34,6.82-13.37,16.5-24.65,19.26-39.44a30.35,30.35,0,0,1,4.62-11.72c1.4-2,2.9-3.95,6.25-3.89-3.87,9.65-4.84,19.79-8.34,29.88l28.42-13.4c-1,6.06-4.6,10-12.75,13.12-11.07,4.26-19.53,11.57-26.81,20.73-7.74,9.74-10.93,20.89-10.62,33,1.23,48.44,2.7,96.87,4,145.31.1,3.93,0,7.2,5.54,4.78a4.21,4.21,0,0,1,5.56,1.77c1.16,2.07.64,4.12-.61,6a9.24,9.24,0,0,1-4.82,4c-4.49,1.27-5.42,4.19-4.92,8.35a54.11,54.11,0,0,1,.17,8.45c-.32,7.76,1.51,15.38.92,23.23s.34,15.85.25,23.77c-.05,4.18,1.19,5,5.26,4.12,12.09-2.69,12-2.54,13.16-14.74,4.91-50,9.52-99.95,15.27-149.83,1.49-12.95,2.28-26,3.4-39,.15-1.8.24-3.43-1.88-4.41-10.17-4.65-14.45-13.39-16.29-23.78-1.56-8.84-3.69-17.6-3.58-26.66,0-1.14-.47-2.73,1.08-3.19,2-.58,2.15,1.29,2.67,2.51,2.92,6.88,4.08,14.13,4.87,21.53.86,8,3,15.63,9.71,21,1.05.84,2.29,2.28,3.62,1.44.73-.46.77-2.2.91-3.39.75-6.47,1.38-13,2.18-19.42.23-1.82.12-4.46,2.7-4.48,2.93,0,2.78,2.8,2.9,4.76.81,13.54,1.74,27.09,2.17,40.64q1.92,60.78-.37,121.56c0,1-.49,2.1.37,2.85,15.06-18.23,32.81-34.13,46-54,4.15-6.27,9.38-11.95,16.29-15.57,2-1,3.9-2.48,6.41-1.88,0,.37.07.82-.09,1-9.75,8-15.24,18.92-20.18,30-7.25,16.22-18.92,28.72-31.83,40.29-7.63,6.85-13.09,15.14-17.7,24.13a8.22,8.22,0,0,0-.89,3c-.93,11.06-1.86,22.12-2.67,33.19-.24,3.31,6.35,7.87,10.58,6.79,8.16-2.06,16.47-4,22.82-10.27a31.31,31.31,0,0,1,11.11-7c3.81-1.43,7.69-2,10.84,1.18s1.52,6.51-.44,10.28c6.78-1.46,13-2.79,18.35-6.72s10.74-7.38,16.26-10.84a21.45,21.45,0,0,1,11.44-3.65c2.49,0,5.11.14,6.35,2.84s0,5.11-2,7.09c-.75.73-1.55,1.41-3.26,3,5.34.46,9.71.89,14.09,1.19a51.61,51.61,0,0,1,14,2.49c1.86.67,3.58,1.73,3.78,4s-1.48,3.47-3.14,4.5c-5.39,3.37-11.45,3.1-17.44,3.07-4,0-7.55-.11-6.34,5.91.63,3.14-2.29,3.5-4.73,3.19-4.59-.56-8.87-2.25-13.17-3.81-3.36-1.22-4.9-.77-4.48,3.4s-1.86,5.54-6,4.44c-3.84-1-6.69-3.83-10-5.79-1.56-.91-3.47-2.77-5.14-.75-1.43,1.74,0,3.7,1.08,5.3,1.65,2.48,4.21,3.69,7,4.5a20.34,20.34,0,0,0,4.64,1c24,1.13,48,2.25,70.15-9.94a126,126,0,0,1,15.94-7c2.66-1,6.36-2.39,7.81,1.41,1.33,3.48-1.88,5.27-4.48,6.83-1.21.72-2.49,1.32-3.74,2-3.07,1.61-4.89,3.25-1.83,6.83,2.49,2.93,1.06,5.83-3.26,7.41s-8.71,1.06-13.07,1.58c-2.86.34-7.62-.25-7.77,2.75-.18,3.78,4.76,1.94,7.27,3.06,1.11.5,2.41.54,3.57.94,1.34.46,2.72,1.06,2.82,2.76a3.72,3.72,0,0,1-2.49,3.7c-3.49,1.61-7.23,1.54-10.91,1.22-7.9-.68-15.77-1.6-23.67-2.33-2.25-.21-5-.67-6.27,1.65-1.48,2.64.59,4.83,2.24,6.51,4.67,4.76,9.86,9,13.6,14.65,1.45,2.18,3.53.93,5.32,1.08,3.06.24,6.28.31,7.25,4,.92,3.45-1.3,5.68-3.9,7.41-4.43,2.95-9.53,3.49-14.68,3.56-13.14.15-25.81-3.42-38.75-4.9-1.9-.21-3.79-.52-5.71-.78,0,.56-.13,1,0,1.13,2.46,2.36,5.57,4.95,2.79,8.45-2.35,2.94-6.06,3.19-9.62,1.34-4.12-2.15-8.72-2.69-13.13-3.88-6-1.61-12.08-3-15.58-8.9-.61-1-1.74-1-2.76-1.27-12.41-2.77-25-.08-37.43-1-2.41-.19-2.25,1.77-2.39,3.29-1.37,15.1-3.43,30.11-5.64,45.1-.26,1.78-.21,3.16,1.33,4.69,3.42,3.42,3.32,6.79-.78,9.75s-2.36,4.42.86,5.39c11.12,3.35,20.89,11.4,33.52,9.72,1.18-.16,2.61.93,3.81,1.63,16.46,9.64,34.17,12.64,52.94,10,3.33-.46,6.67-.87,10,0,1.57.42,3.2,1.2,3.29,3,.11,2-1.76,2.29-3.24,2.88s-4.18-.06-4.62,1.79c-.53,2.26,2.36,2.64,3.61,4,1,1.12,3.1,1.95,2.39,3.7-.82,2-3,1.39-4.69,1.14s-3.09-.71-4.64-1c-1.25-.26-2.72-.52-2.64,1.39.21,5.48-3.28,3.91-6,3.09-6.42-1.91-12.78-4-19.13-6.14-2.94-1-3.81-.6-2.92,2.78,1.27,4.85-.3,6.23-5.1,4.7-5.93-1.88-11.19-5.13-16.29-8.63a39.75,39.75,0,0,0-10.17-5.55c-1.68-.54-3.69-1-4.85.77-1.36,2,.15,3.68,1.51,5.07a22.05,22.05,0,0,0,7.11,4.47c10.59,4.68,21.76,7.1,33.19,8.39a213.66,213.66,0,0,1,22.88,4.09c1.32.3,3,.36,3.37,2s-1.29,2.3-2.35,3.16c-4.61,3.73-9.78,3.22-15.11,2.23-2.38-.45-4.8-1.17-7.35-.58.06,2.23,2.16,2.61,3.3,3.81.84.87,2.15,1.63,1.53,3s-2.1,1-3.3,1-2.45-.24-3.69-.25c-6.22-.08-7.46,1.74-5,7.35.54,1.19,1.1,2.27.11,3.4a4,4,0,0,1-4.82,1.13c-3.38-1.47-6.63-3.24-10-4.86-1.4-.69-2.88-1.84-4.43-.77s-.61,2.54-.34,3.89c.17.85.55,2.06.15,2.54-4.75,5.73,1.19,4.76,3.66,5.92s6.48.9,6.45,4.27c0,2.9-3.79,3.31-6.2,4-12.56,3.76-24,2.24-33.72-7.38a66.31,66.31,0,0,1-5.3-5.16c-2.38-3-3.92-3-5.46.69-1.07,2.54-3,4.68-6,4.15-3.42-.58-3.34-3.67-3.62-6.26-.54-5-1.32-9.83-4.75-13.74-1.27-1.44-3-3.31-4.9-2.18s-.48,3.25.12,4.82c1.13,3,2.5,5.82,3.73,8.74.74,1.76,2,3.62.61,5.47-1.53,2.08-4,1.75-5.82.91-4.59-2.12-5.26-.19-5.18,3.93q.75,43.86,1.22,87.74c0,3,.79,4.09,4,4.66,6,1.07,10.68,5.26,16.06,7.86,1.66.79,3.65,2.72,5.25,1.07,1.8-1.85-.74-3.36-1.58-4.95-.62-1.18-2.34-2.19-1.31-3.66s2.88-.66,4.39-.29c.51.12,1,.37,1.51.48,2,.43,4.52,2.75,5.77,1,1.55-2.15-1.61-3.72-2.78-5.49a16.82,16.82,0,0,0-2.21-2.26c-1.39-1.43-4.08-2.27-3-5s3.76-3,6.28-3c4.94.07,9.62,1.83,15.94,3-2.42-1.85-3.67-2.86-5-3.8-2.7-2-5.3-4.28-3.64-7.84,1.57-3.36,5.12-2.73,8-2.14a79.28,79.28,0,0,1,26.79,10.84,7.65,7.65,0,0,1,1.74,1.19c8.44,9.31,18.57,8.24,29.15,4.88,7.22-2.28,14.5-4.37,21.76-6.52a21.35,21.35,0,0,1,3.62-.75c4.52-.55,9.78-2,12.26,3.15,2.35,4.82-2.15,7.53-5.83,10.9,9.07,1.16,17.22-.72,25.41-1.9a76,76,0,0,0,36.11-15.19,26.57,26.57,0,0,1,8.71-4.91c3.36-.94,3.57-2.53,2-5.28-6.23-10.91-16.21-16.85-27.6-20.82-3.47-1.21-7.2-1.64-10.79-2.5-1.56-.38-3.27-.95-3.14-3,.15-2.17,2-2.07,3.6-2.18,15.72-1.07,38.25,13.79,44.3,28.71,2.16,5.34,4.33,10.1-1.82,14.69,9.91-2.55,19.58-3,29.06-4.73a44.65,44.65,0,0,1,14.22-.35c2.79.39,5.84,1,6.42,4.47.53,3.15-1.9,4.68-4.2,6.08-2.83,1.73-5.69,3.43-9,5.45,3,1.83,5.86.58,8.47.87,1.74.19,3.54,0,5.26.35,2.45.45,5.3,1.19,5.7,3.94.45,3-2.78,3.3-4.73,4-13.11,4.66-26.31,9.07-39.43,13.72-5.49,1.95-10.82,4.36-15.27,8.23-1.54,1.33-3.76,2.91-2.64,5.21.88,1.81,3.19.72,4.87.72,11.4,0,22.09-2.07,30.63-10.45a1.84,1.84,0,0,1,.43-.3c3-1.53,6.24-5.41,9.38-3.11s-.18,6.09-.91,9.2c-.27,1.14-1.47,2.41-.4,3.43,1.34,1.27,2.63-.18,3.75-.81,5.85-3.26,11.54-6.81,18-8.94,3.73-1.24,7.52-1.94,11.43-1,3.27.74,4.36,2.23,1.59,5s-5.79,5.68-8.57,8.62c-1.15,1.23-2.83,2.56-1.71,4.55,1,1.71,2.89,1.81,4.69,1.84,4.07.07,7.26-1.48,10.37-4.27,12.57-11.28,27-17.28,44.16-13.57a27.52,27.52,0,0,1,20.14,16.34c.71,1.58,1.56,3.23.94,5.08-.34,1-.74,2.06-1.87,2.4s-1.89-.64-2.53-1.45a10.09,10.09,0,0,1-.77-1.37c-7.33-13.38-17.5-18-32.43-14.85A41.22,41.22,0,0,0,1439.85,833.44Zm-378.77,614.83c-.8,7.32-1.68,9.36-5.62,14.23-15.69,19.44-37,30.72-59.48,39.85-32.39,13.17-66.36,18.57-101.25,18.5-17.64,0-35.27.2-52.61,3.88-19.1,4-36.63,11.28-50.67,25.48-2.64,2.67-2.83,5-1.14,8.34,4.45,8.84,9.94,17,15.26,25.33,8.58,13.35,15.28,27.4,15.84,43.65.36,10.22.84,20.43.84,30.64,0,4.27,1.5,6.38,5.56,7.54a342.18,342.18,0,0,0,38,9.06c18.6,3.08,37.09,4.31,55.09-3.22,2.18-.91,3.91-1.76,5-4.2,10.75-25.25,27.4-46.24,47.37-64.77,3-2.75,6.23-5.17,9.45-7.62,1.58-1.2,3.42-2.08,5.3-.5,1.59,1.33,1.46,3.07.9,4.85a29.09,29.09,0,0,0-1.49,9.35c.18,9.29,1.72,10.23,9.66,5.91,20-10.88,40-21.46,63.25-24.13,20.17-2.32,39.35-.59,57,10.38,7.49,4.64,12.89,11,16.65,20.3,1.15-3.95,1.83-6.47,2.61-8.95,5-15.71,13.58-29.47,23.94-42,13-15.71,14.19-32.63,7.6-51.08-1.6-4.48-3.87-7.52-8.56-9.12-9.94-3.39-17.66-9.81-24.2-18-6-7.57-12.11-15.16-20.64-20.26-1.67-1-3.57-2.28-3.4-4.85,2.67-.66,4.93.39,7.24,1.23,10.22,3.74,16.94,11.79,23.88,19.52,4.13,4.59,8.18,9.24,13.33,12.74,1.27.87,2.76,2.5,4.19,1.52,1.6-1.08.28-2.89-.24-4.32-.59-1.66-1.33-3.27-1.88-4.94-6.84-20.66-11.82-41.68-11.81-63.61,0-1.73-.81-3.87,1.55-5.42,3.11,4.73,4.35,10,5.43,15.27,5,24.32,8.9,48.84,19.79,71.6a73.76,73.76,0,0,1,7,32.31c0,1.14-.66,2.72.83,3.29,1.3.5,2.21-.8,3.14-1.53a60,60,0,0,0,10.41-9.73c7.58-9.49,15.58-18.67,22-29.06,1.34-2.19,2.44-4.72,5.39-5.44.88,2.86-.16,5.37-1.24,7.74-7.41,16.29-18.34,29.82-31.62,41.79a179.67,179.67,0,0,0-42.34,57.43c-1.65,3.49-3.64,7.12-3.18,12,4.88-2.29,9.71-3.8,13.67-6.55,16.39-11.38,32-23.76,44.7-39.32,14.74-18,29.39-36.06,45.34-53,10.27-10.93,20.6-22.13,34.35-28.55,7.4-3.45,9.76-8.09,9.19-15.41a16.68,16.68,0,0,1,.08-2.11c1.24-20.5,3.76-40.72,13.08-59.44a9.12,9.12,0,0,0,.39-7.15c-4.88-16-12.37-31.09-16.13-47.46-.19-.81-.37-1.88-1.5-1.89-1.34,0-1.62,1.16-1.92,2.15-1.76,5.73-3.52,11.5-3.94,17.49a350.53,350.53,0,0,0,.79,59.12c.52,5.22,1.13,10.44,1.77,16.31-3.1-2.16-3.84-4.74-4.82-7.15-3.92-9.62-4.8-19.82-5.58-30-1.73-22.5,0-44.52,6.9-66.3,6.27-19.74,6.7-40.59,8.56-61.1,1.12-12.42,4.34-23.89,13.26-33.14,1.15-1.19,2.15-2.44.66-4.1-5.69-6.36-5.36-14-4-21.53,2.07-11.25,4.51-22.47,8.33-33.28,5-14.11,10.36-28.09,15.17-42.25,1.61-4.74,3.23-9.88.87-15-11.27-24.27-24.92-47-44.38-65.69-7.24-7-16-11.77-25.46-16.43-.08,3.41,1.88,4.91,3.13,6.66,7.57,10.65,15,21.39,18.9,34,.55,1.75,2,4.05-.34,5.17s-3.16-1.4-4.11-3c-.27-.46-.49-.94-.75-1.4-16-28.73-35.07-54.91-62.38-74.17a134,134,0,0,1-11.92-9.62c-11.77-10.48-19.93-23.13-22.82-38.87-3.34-18.18-4-36.37-.41-54.59.95-4.9,1.92-9.79,3-15.12-7.9,1.72-15.39.66-22.64,2.49-2.54.65-3.5,1.63-3.15,4.31,3.33,25.14,5.39,50.46,12.23,75,4.41,15.82,10.71,30.94,16.37,46.3.9,2.43,2.5,6.33.27,7.21-3.18,1.26-4.17-2.95-5.25-5.3-8.15-17.81-15-36.11-19.58-55.18-5.09-21.29-7.08-43.08-9.84-64.75-.35-2.74.16-5.73-4.27-6.58-6.44-1.25-7.47-5.83-3-10.78.82-.91,1.81-1.67,2.71-2.51.73-.68,2-1.17,1.4-2.47s-1.82-.8-2.81-.83c-2.64-.1-5.3,0-7.93-.18-2.44-.19-5.33-.29-5.66-3.54-.32-3.06,2.39-3.85,4.56-5.06,3.47-1.95,9.17-.6,10.58-4.65,1.23-3.52-.23-8-.51-12a18.66,18.66,0,0,1-.12-2.11c.2-4.41-1-5.82-5.31-3.13-4.92,3.1-10.19,5.93-16.06,6.46-4.29.38-5.49,2.36-6,6.22-2.29,16-6.47,31.63-11.44,47-8.09,25-16.12,50-30.74,72.18-1.43,2.17-.51,3.5.35,5.22,2.9,5.84,6,11.6,8.55,17.57,10.12,23.25,15.64,47.81,20.26,72.61,1.42,7.66,1.43,7.57,7.83,2.73,4.59-3.48,9.27-6.73,7.61-13.65-1.06-4.45-2-8.93-3-13.39-3.28-14.08-4.6-28.18-.54-42.34,1.07-3.74,2.08-7.62,7.52-7.74-3.6,21.12-2.14,41.88,4.06,62.95a39.45,39.45,0,0,0,7.7-9.23c6-9.12,11.93-18.3,18-27.38,3.29-4.91,7-9.38,14.41-11.42-3.83,6-7.15,10.68-10,15.66-11,19.27-21.58,38.78-35.86,56-4.48,5.4-8.16,11.48-12.11,17.31-4.77,7-5.92,14.93-5.23,23.24.25,3.07,1.49,4.52,4.75,3.86,4.14-.84,8.29-1.67,12.47-2.26,3.26-.45,5-2.06,5.56-5.31,1.62-9.34,7.33-15.82,15.08-20.68,5.08-3.2,10.16-6.34,14.41-10.66,1.72-1.75,4-4.08,6.34-2.46s0,4.19-.6,6.25c-1.72,5.68,1.29,9.6,7.16,8.64a46.55,46.55,0,0,0,10.09-3c25.24-10.39,49.6-7.06,73.44,4.53a54.23,54.23,0,0,0,10.93,3.8c9.48,2.34,19.39.88,28.81,3.52,2.29.64,4.74.9,6.56,3.44-3.61,1.86-7.09,1.84-10.57,1.71-5.64-.23-11.26-.52-16.9-.73-1.17-.05-2.65-.57-3.37.73s.58,2.23,1.25,3.21c5.18,7.55,10.42,15.07,15.53,22.67,1.92,2.84,3.86,5.75,4.16,9.81-4.47-.93-6.78-3.92-9-6.73-4.45-5.68-8.61-11.59-12.82-17.45-8.16-11.37-18.41-20.06-32.18-23.48-18.29-4.53-36.56-5.68-54.37,2.45a29.46,29.46,0,0,1-6,1.94c-7.21,1.53-14.09,1.59-19.21-5-.91-1.18-2-2.11-3.6-1.24-7,3.82-13.89,7.82-16.88,15.92-2,5.32-1.33,6.32,4.36,5.83a302.17,302.17,0,0,1,38-1.43c26.85,1,51.18,8.87,73,24.63,8.67,6.27,15.31,14.27,15.74,25.14.74,18.72,9.13,35.85,10.28,54.4,0,.45.29,1.07,1.84.67,3.34-5.09,2.72-11.25,2-17.25-.86-7-1.41-14-.3-21.06.29-1.81.25-4.62,2.59-4.6s2.19,2.8,2.29,4.64c.49,8.45,1.4,16.84,2.6,25.22a22.43,22.43,0,0,1-6.84,20.23,13.22,13.22,0,0,0-4.31,10.22,99.65,99.65,0,0,1-3.72,26.09c-3.77,12.84-10.21,24.12-23.44,28.8-13.74,4.86-27.74,9.11-41.69,13.33-15.42,4.67-31.21,4-46.85-1-18.21-5.8-37.38-6.92-56.06-10.43-11.88-2.22-22.62-6.1-30.91-15.62-10.87-12.48-19.58-25.83-20.58-43,0-.7-.24-1.38-.34-2.08-.35-2.26-1.52-3.13-3.68-2.08-10.52,5.12-21.68,8.32-32.95,11.25-2.83.73-2.47,2-1,4.1,16.17,23.41,37.2,39.14,65.66,45.29,20.15,4.35,39.78,11.1,55.22,26.08,2.47,2.4,5.72,3.43,9.06,4.05a135.1,135.1,0,0,1,29.26,8.85c5,2.2,10.41,3.2,15.81,4.14,6.41,1.12,12.9,2,19,4.29,1.61.59,4.55.74,4.11,3.12-.34,1.85-3,1.45-4.67,1.35-13-.75-26-2.1-38.13-7.53a98.83,98.83,0,0,0-20-6.68c-1.5-.32-3.36-1.2-4.51.18s.3,2.95,1,4.3c3,6,6.42,11.77,9.13,17.88,1.7,3.83,4.09,7.64,3.82,12.47-2.93-.55-4-2.61-5.23-4.51-5.08-8-10.29-16-15.19-24.15-9.86-16.41-24.32-26.68-42.44-31.95-10.15-2.94-20.42-5.44-30.71-7.87-8.89-2.11-17.16-5.64-24.21-11.34-14.51-11.71-26.49-25.79-36.6-41.41-4.34-6.71-3.79-11.24,1.35-17.28a51.74,51.74,0,0,1,4.77-4.94c9.45-8.53,14.89-19,15.74-31.8a87.36,87.36,0,0,1,3.3-18.17c5.93-20.79,15.33-40.13,25.11-59.27,8.62-16.87,13.71-34.25,10.7-53.43a37.81,37.81,0,0,1,1.11-15.86c6.49,14.53,7.08,29.8,6.16,45.84,7-3.35,13.47-6.54,20-9.45,3.12-1.38,3.48-3,2.23-6.1-6-14.87-10.56-30.23-15.14-45.59-8.3-27.81-20.71-53.47-40.33-75.29a325.9,325.9,0,0,1-25.24-32.57c-4.67-6.75-8.54-14.06-9.79-22.54,8.64,10.44,14.81,23.11,27.69,30a42.68,42.68,0,0,1,7.09-21.14,11.68,11.68,0,0,0,1.7-8c-2.12-22.1-8.5-43.15-15.52-64.05-4.27-12.72-7.85-25.58-9.21-39-2.86-28.12-2.4-56.32-1.67-84.5.13-4.73-.19-7.31-5.83-6-1.68.4-4.32.24-4.62-2.27-.27-2.28,2.27-2.27,3.74-3a5.85,5.85,0,0,1,2-.57c4.1-.48,5.3-2.78,5.39-6.82.2-9.15,1-18.29,1.51-27.44.1-1.72.72-3.56-.85-5-3-2.66-1.86-5.44,0-8,2.62-3.72,2.7-7.65,2-12.37-5.88,3.74-10.59,8.57-17.66,8.64-1.93,0-1.41,2.14-1.47,3.43-.34,7.22-.56,14.44-.9,21.65-1.66,36.26-3,72.54-5.15,108.76-1.73,28.83-4.3,57.62-6.87,86.4-2.13,23.91-2.26,47.85-2,71.82,0,4.14-.22,8.26-2.74,12.2a17.92,17.92,0,0,1-2.57-8.33c-.94-9.1-2.22-18.22-2.41-27.35-.84-40.34-1.27-80.69-2-121-1-52.51.58-105,.18-157.53,0-4.11-.86-6.52-5.18-7.58-2.81-.69-6-2.11-5.6-6,.39-3.67,3.71-4.05,6.4-4.35,3.46-.39,4.33-2.06,4.16-5.24a117.24,117.24,0,0,1,.05-12.15c.17-3.31-1-3.86-4-3-4.55,1.34-9.24,2.76-14,1.75-3.83-.8-4,1.09-3.83,4,1.44,21.31.62,42.62-.11,63.92-.81,23.72-4.22,47-13.86,68.94a38.45,38.45,0,0,0-2.92,12.3,52.09,52.09,0,0,1-9.72,25.88c-4.87,7-10.78,13-16.65,19.1-5.27,5.43-9.27,11.51-10.73,19-1.7,8.82-3.68,17.6-4.91,26.48-1.16,8.4,1.23,16.56,2.43,26,10.49-15.69,22.85-28.08,33.53-41.84,7.32-9.44,12.66-19.45,12.83-31.7a13.71,13.71,0,0,1,3.93-9.55c1.34-1.4,2.44-3.9,5.08-2.75,2.81,1.23,2.11,3.81,1.66,6-1.38,6.73-2.72,13.36-2.2,20.38a61.25,61.25,0,0,1-11.42,41.4c-3.81,5.32-8.31,10-12.71,14.85-12.18,13.31-18.1,29-18.87,47-.82,19.36,4.89,37.19,11.52,54.9,1.06,2.83,2.71,6.49-.76,7.91-3.76,1.55-4.68-2.76-5.83-5.28a192.37,192.37,0,0,1-12.41-38.12c-11.13-49.78-16.77-100.4-22.18-151q-5.11-47.8-8.41-95.79c-.59-8.44-5.38-11.87-11.33-15.37-1.32-.77-2.47-.62-2.92.94-1.13,3.82-2.91,7.33-2.5,11.69,2.33,24.7,4.73,49.4,6.33,74.15q3.07,47.46,4.92,95c1.4,34.87,2.71,69.84-2.83,104.47-3.52,22.07-8.51,43.9-8.74,66.41a18,18,0,0,0,2.34,10c6,10,10.52,20.73,12.17,32.43,1.2,8.48,1,16.87-2.7,24.85-4.57,9.74-15.06,12.45-23.49,6a51.75,51.75,0,0,0-12.48-6.8c-13-5.14-26.45-5.24-40-3-20.88,3.44-35.9,15.33-47,32.74-.9,1.42-2.23,3.11-1,4.85a5.11,5.11,0,0,0,5.59,2c4.13-.9,8.55-1,12.36-2.62,9.81-4.14,20.1-5.16,30.48-5.67a287.48,287.48,0,0,1,76.06,6.82c11.51,2.53,22.11,8.31,28.21,19,6.82,11.92,11.72,24.81,15.57,38,2.91,10,5.12,20.52,4.69,30.71-.51,12.14,5.82,16,15.43,19,10.4,3.28,20.73,6.8,31.23,9.76,2.33.66,6,2,5.34,4.64-.62,2.41-4.36,1.38-6.7,1.11-11.64-1.39-22.59-5.37-33.48-9.45-11.07-4.15-11-4.3-12.83,7.77-3.61,23.91-23.49,45.65-46.79,51-5,1.15-10,1.84-15.09,2.68-16.15,2.67-32.5,4.25-48.11,9.64-7.23,2.49-14.77,3.11-22.37,3.51-23.14,1.2-44.84-2.76-64.37-16.17-11.42-7.85-19.13-18-22.23-31.55-1.13-5-2.51-9.91-4-14.79-8.1-26.33-4.92-51.9,5.25-77,3.19-7.84,2.52-9.89-5.51-13.3a22.3,22.3,0,0,0-5-1.68c-3.34-.54-4.67-2.49-5.23-5.66-.67-3.86-1-8-4.13-11.13-1.94,2.44-1.55,4.82-.77,7.24,1,3.18,2.24,6.32,3,9.56,1.17,4.88-.16,9-5.22,10.63-3.08,1-2.59,2.53-2,4.71,1.24,4.41,2.51,8.81,3.45,13.28,5,23.63.87,46.62-5.25,69.4-2.75,10.26-6.94,20.08-17.08,24.92-6.34,3-9.06,7.1-8.93,13.77a57,57,0,0,1-.55,7.37c-1.77,15.4-.93,31-4.09,46.3-3.28,15.88-6.07,31.78-6.52,48.07-.28,10.46-2.13,20.68-7.75,29.85a5.26,5.26,0,0,0-.76,1.95c-.59,4.54,3,6.78,5.86,8.6,2.21,1.41,3-2.11,4.06-3.66a76.9,76.9,0,0,0,9.84-21c2.47-8.09,3.84-16.46,6.06-24.6,5.75-21.08,14.72-41.08,21.25-61.91a16,16,0,0,0,.52-8.75,128.62,128.62,0,0,1-3.15-35.15,36.21,36.21,0,0,1,4-14.79c1.8,10.87,3.47,20.57,4.28,30.41s1.73,19.7,5.14,29.06c7.71,21.13,8.71,43,7.51,65.16a116.54,116.54,0,0,1-3.79,25c-.39,1.4-.93,2.93-2.74,2.56-1.41-.28-1.55-1.75-1.55-3,0-.88.12-1.76.17-2.63,1.12-19,1.76-38,.41-57a76.73,76.73,0,0,0-3.78-17.52c-.4-1.26-.36-3.15-2.26-3-1.54.09-1.4,1.81-1.73,2.92a316.77,316.77,0,0,1-13,36.84c-2.07,4.81-3.09,10.09-4.32,15.22-4.13,17.32-8.3,34.65-18.24,49.82-2.36,3.6-1.91,6.22.78,9.36a243.46,243.46,0,0,1,21,28.51c8.13,12.82,15.07,26.55,14.69,41.81-.29,12.06,5.37,18.36,14.48,23.58.76.44,1.43,1,2.17,1.5,10.73,6.87,20.55,14.47,27.84,25.39,6.67,10,16,16.63,29,16.73,8.48.06,15,4.38,20,11.17,1.88,2.56,3.94,5,5.94,7.44A102.43,102.43,0,0,0,808.26,1659c2.27.94,5.45,2.9,5.79-1.86,1.35-18.71,1.8-37.22-6.67-54.9-6.11-12.74-15.21-23.2-23.56-34.3a110.16,110.16,0,0,0-17.65-18.84,94.09,94.09,0,0,1-24.07-30.48c-1-1.91-2-3.88-1.52-6.66,5.72,4,9.7,9,13.46,14a106.64,106.64,0,0,0,17.05,18.71c1,.88,2,2.32,3.57,1.8,1.71-.58,1.08-2.36,1.21-3.69.2-2.1.32-4.21.5-6.32,1.2-13.77,7.22-26,12-38.71,7.19-19.09,9.67-39.29,14-59,1.22-5.51,2.46-11,6.51-16.91,3.6,15-.9,27.81-3.23,40.8a285.41,285.41,0,0,1-10.36,39c7.35-3.63,12.83-9.05,18.09-14.69a88.93,88.93,0,0,1,21.18-16.49,27.24,27.24,0,0,1,9.87-3.56c.86-.12,1.88-.2,2.37.69s-.38,1.61-.92,2.22a16.24,16.24,0,0,1-2.34,2.12,220.33,220.33,0,0,0-28.42,25.23c-4.13,4.43-8.83,8.33-14.41,10.55-8.5,3.38-12.56,9.66-14,18.25-1.12,6.52-2.57,13-.64,20.55,12.81-13.9,28.37-21.37,45.18-26.72,17.74-5.66,36-6.35,54.38-6,17.82.31,35.58-.43,53.2-3.42,11.93-2,19.09-9.07,21.9-20.88,2.24-9.4-.21-18-2.93-26.88-6.74-22-3.41-42.47,10.46-61a67.32,67.32,0,0,0,10.83-20.42c.92-3,1.83-6,4.87-8.51,2,12.24-2.08,22.22-9.19,31.21-13.56,17.13-17,36.17-9.66,56.57,5.77,16,5.67,30.92-5.49,45.9C999.83,1496.77,1034,1478.91,1061.08,1448.27Zm-162.76,405c-8.51.87-15.54.59-22.3-1.74a168.87,168.87,0,0,1-36.42-17.87,18.9,18.9,0,0,1-5.8-5.32c-.55-.84-1.34-2-.3-2.79a2.78,2.78,0,0,1,2.43-.08c2.86,1.35,5.67,2.82,8.44,4.36,12.93,7.22,25.8,14.67,40.77,16.83,8.43,1.21,16.64,1.47,24.29-4a341.13,341.13,0,0,0,38.19-32.49c24.19-23.44,49.12-46,76.54-65.69a150,150,0,0,0,35.74-35.66c14.72-21,31.58-40.14,49.56-58.36,4.45-4.5,8.74-9.2,12.77-14.09,7.34-8.89,7.14-14.54-.39-23.33-5.71-6.65-13.24-10.46-21.37-13.06-21.91-7-43.6-5.3-64.61,3.28-17.48,7.13-33.78,16.62-49.43,27.24-12.08,8.2-21.7,18.38-28.49,31.32a20.11,20.11,0,0,1-13.58,10.82c-6.85,1.66-13.58,3.77-20.38,5.59-23.13,6.21-44.27,16.28-62.39,32.16-6,5.22-11.64,10.76-17.49,16.11a28.6,28.6,0,0,1-4.13,3.24,2.56,2.56,0,0,1-2.35.1,2.71,2.71,0,0,1-.26-2.41,26.76,26.76,0,0,1,5.92-8.67,210.74,210.74,0,0,1,26.54-22.57c1.46-1.06,3.65-1.56,3.9-4.22-1.36-.35-2.69-.75-4-1.05-14.44-3.15-29-5.86-43.3-9.5-63.26-16-117.88-46.83-161.61-95.84-2.72-3-3.85-3.61-6.86.06-15.1,18.39-33.22,32.46-57.17,37.48-.85.17-1.78.22-2.14,1.24a3.25,3.25,0,0,0,.37,1c5.77,6.89,11.46,13.84,17.35,20.62,30.89,35.55,54.76,74.91,67.64,120.67a261,261,0,0,0,18.3,47.8c17.12,33.64,52.41,42.17,84.54,35.06-3.27-3.11-7.28-4.46-10.81-6.56-1.46-.87-3.62-1.76-2.78-3.86.93-2.36,3.22-1.8,5-1,4.49,2,9,4,13.32,6.39,11.59,6.34,23,13,34.63,19.26,12.11,6.47,25,7,38.17,3.8-6.23-3-12.34-6-18.21-9.41-1.78-1-4.58-2-3.62-4.43,1.1-2.81,3.59-.81,5.4-.21,8.18,2.74,16.35,5.53,24.87,7.08C881.85,1862.12,890.22,1861,898.32,1853.23Zm345.13-190.81c10.24,1.7,19.56,3.41,29.08,3.65a7.69,7.69,0,0,0,7.38-3.82c5.78-8.42,11.81-16.66,17.86-24.89,13.67-18.58,29.2-35.74,41.51-55.37,7.51-12,13.28-24.52,14.32-38.74,1.07-14.7-1.77-28.73-11.62-40-12.86-14.75-29.57-14.59-46.75-9.69-13.57,3.87-24.67,12-34.51,21.77a497.79,497.79,0,0,0-41.66,47.76c-20.73,26.71-44.54,49.9-75.13,65.31-5.19,2.61-10.29,5.58-14.34,9.81-7.91,8.27-15.39,17-23.4,25.14-17.44,17.81-31.36,38.5-47.34,57.49-6.81,8.1-14,15.92-22.36,22.34-18.89,14.46-38.26,28.36-55.32,45-23.61,23-48.89,44.15-73.19,66.38a63.16,63.16,0,0,1-26.16,14.27c-9.19,2.57-17.89,6.92-28.7,7.25a123.94,123.94,0,0,0,18.8,16.66c13.94,9.81,29.14,15.61,46.58,13.43,11.39-1.43,21.65-6.12,31.67-11.32,7.74-4,15.5-8.08,22.6-13.53-1.81-1.68-3.66-1.06-5.32-1.14-7.22-.36-14.44-.56-21.65-.9-1.53-.08-3.64-.08-3.77-2.06s1.88-2.18,3.44-2.51a60.19,60.19,0,0,1,14.18-1.05c34.23.88,68.31-1.65,102.26-5.53,23-2.62,44.47-9.65,59.46-29.2,3.75-4.89,8-9.49,11.21-14.69,20.92-33.46,47.71-61.3,79.5-84.55,11.39-8.32,21.57-18.13,31.43-28.23,7.61-7.79,14.13-16.43,20.74-26.05-15-.14-29.51,1-40.58-10.31a9,9,0,0,1,4.74.14c11.2,3.63,22.7,4.46,34.4,4.66,4.8.08,7-2,9-5.55,1.42-2.51.59-3-1.85-3-5.65.07-11.31-.16-16.74-1.82C1249.6,1668.38,1245.73,1667.4,1243.45,1662.42Zm-705.52-52.17c-.55-2-2.07-2.38-3.17-3.1a115.35,115.35,0,0,1-34.07-34.2c-10-15.45-16-32.5-19.63-50.42-.46-2.29-1.43-5.82,1.38-6.56,3.21-.84,3.29,3,4,5.12,1.75,5.54,3,11.25,4.84,16.75,10.59,31.31,28.7,56.57,59.56,70.53,20.13,9.11,41,13.15,62.27,3a127.57,127.57,0,0,0,20.44-12.11,63.23,63.23,0,0,0,25.53-40c4.48-22.69-1.39-42.9-15-61.17-11.71-15.68-24-30.92-37-45.54a123.45,123.45,0,0,0-66.31-39.09c-13.23-3-26.42-3.57-36.42,8.53-1.93,2.34-3.39,1-4.16-1.22-1.31-3.81,1.2-6,3.74-8,9-6.78,19.29-8.32,30.11-7A122.1,122.1,0,0,1,579.29,1421c3.26,1.82,4.15.89,6.44-1.67,7-7.86,9-16.71,7.59-26.8a37.22,37.22,0,0,1,.06-6.33c.86-27.82,2.73-55.6,2.51-83.45a68,68,0,0,0-.93-8.89c-.58-4.34-1.92-5.53-6.42-3.77q-29.5,11.54-59.7,21.22c-40.67,13-63.85,41.19-69.19,83.43A327.25,327.25,0,0,1,442.14,1468c-5.75,15.49-6.65,31-3.6,47.26,7.28,38.59,26.62,68.13,62.38,85.93A82,82,0,0,0,537.93,1610.25Zm582.18,240.1c2.41,0,3.62,0,4.83,0,19.39-.73,38-4.57,55.44-13.46,8.69-4.44,17.7-7.79,27.63-8.21,8.3-.35,16.55.4,24.81.79,19.28.9,32.88-6.54,41.09-24.85,11.95-26.69,22.23-54,33.89-80.84,6.66-15.33,12.39-31.12,21.13-45.48q16.65-27.32,31.23-55.78c10.32-20.2,18.39-41,19-64.25a998.87,998.87,0,0,1,8.34-101.58,100.31,100.31,0,0,0-.63-32.1c-5.21-26.72-41.53-43.45-64.41-23.14a60.7,60.7,0,0,0-15.89,22.74c-6.54,15.88-8.65,32.6-9.38,49.57-.16,3.67-1.69,8.44,0,10.73,2,2.64,6.84-.09,10.46.16.35,0,.71,0,1.06,0,6.65-.06,6.49,0,5.5-6.89-1.79-12.38-1.09-24.63,3.07-36.51,3.85-11,11.53-17.68,23.06-20.23,10.42-2.3,20.31-.63,30.06,2.93,4.18,1.52,6.91,4.7,8.79,8.68,2.36,5,2.51,10.31,1.72,15.55-2.38,15.86-5.3,31.62-10.57,46.83-2.28,6.59-5.6,12.61-11.78,16.42-2,1.24-1.79,2.63-1.23,4.47,7,23,2.26,44.19-9.9,64.22a336.91,336.91,0,0,1-23.56,33.8c-17.22,21.86-34.88,43.43-49.41,67.24-11.31,18.52-25.56,34.47-41.35,49.18-14.72,13.71-31.11,25.38-46.48,38.3C1159.53,1791.44,1144.53,1823.92,1120.11,1850.35ZM831,711.8a51.12,51.12,0,0,0-8.67,20c-1.94,8.68-1.51,17.53-1.77,26.32a87,87,0,0,1-16,48.43q-4.1,5.84-8.11,11.74a35.29,35.29,0,0,0-6,23c2.57,38.46-13.09,70.26-36.78,99-2.37,2.87-5.35,7.8-9.38,6.34-3.48-1.26-2.94-6.69-3.51-10.44-4.11-27.22-2.55-54.5-.53-81.75,1.25-17-1-61.57-4.78-75.17-.94,18.18-5.56,35.78-8,53.71-.22,1.55-.08,3.38-2,3.91-1.67.46-2.39-1.14-3.45-2-12.95-10.59-25-22.31-39.07-31.48-1.51-1-3.1-1.88-4.65-2.82a31,31,0,0,0,6.56,6.27c10.4,8.19,20.39,16.82,28.83,27.1,5.81,7.06,10.26,14.89,11.11,24.13,3,33,4.85,66.1-.62,99.08a7,7,0,0,0,1.87,6.66c4.79,5.16,9.55,10.45,11,17.7.36,1.8,1.78,2,3.1,2.39,19.4,5.64,37.37,14.52,55,24.23,13.52,7.46,27.06,14.89,39.36,26.3-.69-16.21,6-29.82,8.57-44.29a150,150,0,0,0,2.21-15.16c3.56-46.6,3-93.3,3-140,0-1.23-.18-2.46-.25-3.7-2.17-35.85-6.56-71.59-5.81-107.61,0-1.8.12-3.56-1.92-4.47C836.61,717.58,834,714.73,831,711.8Zm273.07,166c1.42-8.67,2.5-16.1,3.89-23.47.66-3.5-.53-4.45-3.82-4.05-3.66.44-7.34,1.05-11,.43-1.55-.26-3.39-.45-4-2.16s1-2.81,2.17-3.83c2-1.73,4.15-3.29,6-5.16,1.43-1.46,1.84-3.7-.89-3.77-7.51-.17-8.83-5.86-10.66-11.17-.49-1.4-1.63-3.09,0-4.38,1.44-1.14,3.1-.25,4.49.39,5.43,2.51,10.88,5,16.17,7.79,3.34,1.76,4.83,1.13,4.9-2.68,0-1,.23-2.1.32-3.15,2.41-29.88,2.4-59.79,1.35-89.73a7.78,7.78,0,0,0-3.25-6.18c-23.38-19.64-47.18-22.37-74.44-8.38-5,2.57-10,5.29-15.53,6.5-3,.66-3.77,2.35-3.83,5.22-.35,18-1.17,35.91-.54,53.87.75,21.29,1.28,42.59,7.67,63.24,1.26,4.09,2.56,4.32,6.15,2.51,12.93-6.54,23.84-15.53,33.43-26.27,1.4-1.57,2.94-3.44,5.35-2.63,2.63.88,2.84,3.39,2.84,5.71,0,10.26,4.36,18.78,10.81,26.3C1088.58,860.89,1095.9,868.73,1104.07,877.81Zm255.29,761.44a44.53,44.53,0,0,0,17.05-11.88,91.14,91.14,0,0,0,18.91-34.46,406.33,406.33,0,0,1,22.67-58.55,99.74,99.74,0,0,0,8-22.87c7-33.74,8.55-68.07,10.53-102.34.14-2.53,0-5.08,0-8.37-3.29,2.35-5.74,4.3-8.38,5.94-8,5-15.09,3.65-20.88-3.83a32.28,32.28,0,0,1-6.61-15.92c-1.76-14-2.46-28.07-.93-42.15,2-18.61,19.21-30.26,37.41-25.33,2.36.64,3.08.39,3.21-2.16a21.72,21.72,0,0,0-27.75-22.32,34.23,34.23,0,0,0-7.35,2.88c-32.15,17.69-49.51,45.45-55.13,81.19-.73,4.63.16,7,5.54,8.41,25.69,6.58,38.2,23.14,38.42,49.78a212.8,212.8,0,0,1-1.41,27.42c-3.38,27.8-6.44,55.59-6.75,83.66-.3,27.89-6.44,54.42-20.47,78.85C1363.23,1631.1,1361.39,1635.22,1359.36,1639.25ZM1018.74,562.94h-.42c0,10.57.15,21.14-.07,31.7-.09,3.84,1.33,4.82,4.91,4.7,8-.27,10.15-1.71,12.41-9.18,2.22-7.3,8.51-9.27,14.27-4.24,3,2.65,5.46,6,8.54,8.63,11.28,9.52,23.59,16.46,39.15,15.57,4.33-.25,6-1.17,6.11-6,.6-35.57,1.5-71.13,2.42-106.69.09-3.39-.91-5.65-4-7.29-2.64-1.42-5.09-3.34-6.12-6.33s0-4.88,3.42-4.79c7,.17,7,.19,7.07-7.18,0-1.41-.07-2.83.09-4.23.5-4.23-1.18-3.74-4.07-2.23-9.66,5-17.61,12.28-25.41,19.66a309.49,309.49,0,0,1-55.31,41.3,5.36,5.36,0,0,0-3.07,5.4C1018.79,542.16,1018.74,552.55,1018.74,562.94ZM623,1058.66c.94-.64,1.14-.71,1.21-.84.57-1.08,1.13-2.17,1.66-3.28,7-14.47,18.79-22.41,34.52-24.8,2.44-.37,4.93-.53,7.31-1.11a10.45,10.45,0,0,0,7.45-13.91c-.29-.83-.68-1.63-.91-2.48-.49-1.82-.47-3.62,1.5-4.55s3.46,0,4.56,1.55a8,8,0,0,1,1.62,3.29c1.07,8.39,7.13,11.55,14.21,12.63,15.86,2.41,31.15,7.63,47,9.81,20.86,2.89,40.91,7.21,57.83,20.78,2.59,2.07,5.73,3.45,8.61,5.15,7,4.13,13.22,9.31,19.39,14.59,11.16,9.54,15.55,21.82,15.64,36.09,0,1.77-1.24,4.33,1.09,5.19s4.29-1,5.94-2.63a18,18,0,0,0,4.54-8.23,37.42,37.42,0,0,0,.47-17.81c-5.43-25.81-18.85-46.59-40.89-61.14-21.07-13.92-43.86-24.73-67.2-34.25-17.69-7.22-36-8.71-54.26-2.37-21.12,7.34-42.07,15.18-62.93,23.21a34.28,34.28,0,0,0-17.95,15c-2.62,4.53-2.77,9.08-.07,13.53C616.56,1047.43,620.25,1052.56,623,1058.66ZM861.81,596.49c.53,8.65,1.28,16.7,1.41,24.77.07,4.46,2.06,5.29,5.86,4.93,6.3-.59,12.69-1.79,18.91-1.23,12,1.08,23.5-.9,34.9-4.24,3-.88,6.08-1.79,9.18-2.42,2.27-.46,5.16-.59,6.06,1.88,1.11,3-2.18,3.38-4,4.5-.88.54-2.23,1.09-2.38,1.83-.28,1.47,1.38,1.75,2.38,2.4,1.81,1.17,5.36,1.43,4.69,4.1-.71,2.86-4.12,1.82-6.48,2-.87.06-1.76-.13-2.63-.14-1.48,0-2.47.54-2.05,2.21,1.15,4.48-2,4.18-4.62,4-6.14-.53-12.26-1.33-18.39-1.94-1.8-.18-3.7-1-5.42.13,0,2.84,3.69,5,1.3,7.54-2.23,2.36-5.37.87-8,.33a74.66,74.66,0,0,1-13.56-4.36,75.51,75.51,0,0,0-9-3.14c-1.66-.45-4.15-1.88-5,.82-.71,2.36-.32,5.05,2.53,6.23a34.5,34.5,0,0,0,5.54,1.72c11.64,2.67,23.43,2.56,35.24,1.58a198.49,198.49,0,0,1,21.12-.49c1.67,0,3.9-.51,4.58,1.6s-1.4,3-2.57,4.25c-2.71,2.86-6.12,4-10,4.09-3.43.11-6.86.46-10.45.72,1,3.59,6.44,2.87,5.59,6s-4.92,1.63-7.51,2.36c-5.11,1.44-5.92,3.48-2.69,7.67.87,1.13,2,2.11,1.11,3.69a4,4,0,0,1-4,2.07c-2.08-.26-4.12-.84-6.18-1.28-3-.64-5.79-2.71-9.16-1.46-.2,2.5,3.25,4.36,1.21,6.91-3,3.75-.84,4.31,2.5,4.44a35.63,35.63,0,0,1,5.24.6c1.52.28,3.43.4,3.83,2.25s-1.31,2.73-2.58,3.62a34.08,34.08,0,0,1-24,6.24c-3-.34-3.93.23-3.78,3.54.5,10.62,2.51,20.26,10.86,28,5.11,4.76,9.24,10.6,14.59,15.24,2.28,2,4.63,4,5.79,6.8,4.18,10,12.59,14.79,22.2,18.58,1-5.74,2-11.45,4.38-16.79,7.53-17,11.06-34.83,12.14-53.27a851.86,851.86,0,0,0,.43-88.69c-.18-4-1.62-5.06-5.21-5.33a72.32,72.32,0,0,1-10.36-1.92c-2.16-.49-4.17-1.48-3.85-4.2s2.4-3.41,4.57-3.59a102.26,102.26,0,0,1,11.06-.45c2.06,0,3.43,0,3.45-2.6.06-7.22.24-14.44.33-21.66,0-1.27-.15-2.64-2-2.42-5.25.62-10.49,1.27-15.72,2-1,.14-2.28.46-2.17,1.81s1.47,1.36,2.43,1.61c2.56.67,5.16,1.16,7.71,1.84,1.37.36,2.87,1,2.9,2.64,0,2-1.58,2.55-3.17,3-4.8,1.3-9.42.13-14.05-1-2.78-.7-5.61-1.79-9,.07,1.94,2.24,4.4,2.36,6.24,3.51,1.5.94,3.36,1.79,3.08,3.86s-2.29,1.91-3.75,2.34c-7.75,2.28-15.36.91-22.93-1-4.54-1.14-9.05-2.4-13.9-3.7.09,3.17,2.14,6.06-.7,7.94C870.94,602.7,867.16,598.1,861.81,596.49Zm-104.47-244c2.94.25,5.75.52,8.56.69,1.49.1,3.62.8,3.8-1.49.16-2-1.89-2.31-3.45-2.5-4-.48-8.06-.79-12.08-1.3-1.55-.2-3.4-.55-3.74-2.39s1.35-2.38,2.61-2.88c3.77-1.51,3.48-3.11.48-5.29a23.14,23.14,0,0,1-3.61-3.84c-8.48-9.83-18-18.12-30-23.67a111,111,0,0,0-55.49-10.13c-21.41,1.53-40.95,8-57.73,22a46.23,46.23,0,0,0-16.79,30.11c-.49,3.37.62,3.91,3.65,3.48,2.72-.39,2.73-2.36,3.14-4.17,2.2-9.84,8.35-16.91,16.1-22.8,1.78-1.35,4.25-3.3,6.07-1.11,2,2.44-.85,4.09-2.52,5.42-5.46,4.34-10,9.35-12.82,15.84-2.58,6-2.6,5.89,4,6.19,27.18,1.24,51.1,9.63,68.55,31.79,1.88,2.39,2.73,1.62,4.35,0a125.61,125.61,0,0,1,48.12-29.71c3.14-1.06,3.05-2.15,1.07-4.24-7.23-7.63-16-12-26.55-12.32-2.36-.06-5.24.18-5.37-2.73-.13-3.16,3.13-2.64,5.24-3a9.9,9.9,0,0,1,3.16.09c12.19,1.65,22.65,6.41,29.76,16.95a3.85,3.85,0,0,0,4.24,2C745.85,352.86,751.67,352.75,757.34,352.44Zm-82.22,783.63c-32.87,1.06-63.49,11.25-93.38,24.11a25.68,25.68,0,0,0-12,10.87c-4.49,7.67-2,15.3,6.56,17.51,14.89,3.85,29.71,3.89,43.35-4.56,8.77-5.44,17.61-6.49,27.11-2.25a98.2,98.2,0,0,0,11.87,4.39c2.48.74,5.39,1.29,7.4-1.09,1.77-2.1.28-4.39-.39-6.51-.73-2.34-1.72-4.61-2.5-6.94-1.1-3.31-1.54-6.95.73-9.63,3-3.54,2.18-6-.73-8.82-1.06-1-2.67-2.48-1.16-4,1.73-1.77,3.22,0,4.5,1.08,5.26,4.64,9.59,10.1,10.79,17.1.89,5.16,2.18,8.85,8.3,9.08,1.7.07,3.67,1.51,4.94,2.86,9.36,10,19.54,11.93,31.66,4.7,5.07-3,6.42-1.93,6.73,4,.32,6.11,3.19,9.92,8.43,12.94,8.21,4.75,17,8.8,24,15.22,4.92,4.45,9.83,5.64,16.27,3.91,6.95-1.87,7.25-1.7,4.32-8.55-4-9.29-9.51-17.69-15.29-25.88C744.42,1154,715.27,1134.91,675.12,1136.07ZM937.19,442.22c-6.91.4-10,5-14.17,7.75-2.36,1.57-4.28,2.62-6.92,0s-5.53.38-8.26.91c-1.64.32-.79,1.85-.32,3,2.32,5.92,1.36,7.41-4.93,8-5.16.5-10.17-.65-15.23-1.26-3.63-.44-6.16.48-5.08,4.84,1.17,4.71-1.36,5.79-5.14,5.27-5-.7-10.08-1.61-15.06-2.7-3-.65-4.17-.1-4.12,3.2q.22,14.52,0,29.05c-.05,3.45,1,4.11,4.34,3.39,6.2-1.33,12.54-2.11,18.79,0,1.55.52,3.06,1.26,3,3.19,0,1.63-1.39,2.3-2.64,3-2.52,1.43-5.82,1.1-8.12,3.4,1.35,1.55,3,1.48,4.54,1.69a89.21,89.21,0,0,0,19,.27,193.67,193.67,0,0,0,38.3-7.49c1.61-.47,3.57-1.64,4.85.23s.59,3.76-.66,5.41-3.32,2.58-5.3,3.33c-2.47.93-5,1.63-7.46,2.66-6.68,2.84-7.46,5.09-4.42,11.71.69,1.51,2.29,3.13.78,4.81-1.22,1.37-3.06.6-4.51.17-5.55-1.68-11.05-3.55-16.59-5.28-2-.64-4-.4-4.77,1.94s.95,3.08,2.56,3.87c3.31,1.64,6.8,3,9.89,5,3.83,2.44,3.59,5.31-.28,7.72a11,11,0,0,1-7.65,1.27c-3-.44-5.91-1-8.81-1.7-3.05-.73-4.08,1.07-4.92,3.43-1,2.7.81,3.4,2.78,4,1.68.52,3.39,1,5,1.58,1.13.42,2.43.92,2.29,2.49-.11,1.18-1.09,1.74-2,2.26-2.22,1.23-5,1.42-7.75,4.14,16.62,1,32.16,1.07,47.71-1.12,4.1-.57,5.53-2.3,5.59-6.49q.8-49.9,2-99.82c.11-4.59.09-7.57-5.86-5.24a4.8,4.8,0,0,1-6.3-2.48c-1.11-2.46.32-4.38,2.1-6C934.5,444.73,935.5,443.79,937.19,442.22ZM593.72,1148.86c-1.79-.63-2.73-1.25-3.67-1.24-10.08.2-19.34-3.42-28.79-6.11a57.56,57.56,0,0,0-27.17-.92,35,35,0,0,1-3.65.56c-1.2.11-2.62.35-3.15-1.14-.6-1.66.51-2.67,1.8-3.38a24.45,24.45,0,0,1,9.13-2.42c10.53-1.18,20.66.73,30.69,3.8,4.33,1.32,8.69,3.14,14.54,2.44-9.76-7.76-18.37-15.28-24.9-24.76-1.87-2.72-4.22-3.81-7.4-4.23-10.74-1.41-21.47-.94-32.15.11a78.71,78.71,0,0,0-45.57,20.18c-10,8.9-8,18.93,4.24,24.36,8.56,3.79,16.55,1.79,24-3.23,2.61-1.77,4.92-4,7.41-5.94a3.5,3.5,0,0,1,4.39-.37c1.63,1.07,1.6,2.62,1.15,4.22-.33,1.18-.89,2.3-1.25,3.47-2.7,8.63-.13,13.25,8.57,14.9a122,122,0,0,0,37.85,1.39c2.42-.29,4.25-1,5.66-3.15,3.73-5.79,9.08-9.77,15.21-12.71C584.67,1152.75,588.83,1151,593.72,1148.86Zm592.86.7c4.92,5.85,9.25,12.16,12,19.45,2.37,6.24,5,12.41,7.69,18.51a73,73,0,0,1,6.06,24.46c1,12.59,5.57,23.48,14.85,32.28,3.83,3.63,7.39,7.54,11,11.38,7.55,8,13.24,16.92,12.82,28.54a1.43,1.43,0,0,0,1.22,1.59,4.14,4.14,0,0,0,1.11-.87c.75-1.18,1.39-2.44,2.08-3.66,9.87-17.45,8.94-35.84,4.17-54.3-2.59-10.06-6.16-20-6.32-30.39-.21-12.82-6.49-21.29-16.9-27.89-14.6-9.28-31-14.05-47.08-19.62A2.14,2.14,0,0,0,1186.58,1149.56ZM1042.66,425.48c-.63,3.47,1.22,5.6,2.88,7.81,1.36,1.83,2,3.87.67,5.87-1.55,2.28-4,2.15-6.19,1.27a41.92,41.92,0,0,1-6.6-3.3,39.51,39.51,0,0,0-10.75-4.29c-2.4-.64-3.77-.07-3.6,2.71.08,1.22,0,2.46,0,3.69,0,6.91,0,6.83,6.45,5.62,2.41-.45,5.83-2.39,7.09.3,1.52,3.23-2.23,5.19-4.52,6.11-8.82,3.55-9.63,10.25-9.22,18.56.6,12.3,1.87,14.42,14.27,16.5,2.94.5,6,.55,8.94.83,1.81.17,3.75-.08,5.68,1.09-1.38,1.93-3.09,2.13-4.77,2.58a31.71,31.71,0,0,1-18.73-.9c-4.79-1.64-5.56-.07-5.38,4.35.29,7.21,0,14.44,0,21.67,0,1.3-.77,3.09.73,3.83s2.55-.84,3.63-1.6a429.19,429.19,0,0,0,45-36.66,91,91,0,0,0,17.64-23,37.69,37.69,0,0,1,7.63-10.05c1.48-1.33,3-3.19,5.66-1.74-2.5,6.62-7.66,11.84-10.09,18.94,5.37-2.84,10.13-5.49,15-7.88a4.5,4.5,0,0,0,2.79-4.55c.07-5.64.31-11.27.36-16.91,0-1.42.75-3.73-1.51-3.83-1.83-.08-4.51-1.09-5.51,1.67-1.15,3.15-3.29,2.24-5.11,1.25-4.32-2.36-8.49-5-12.73-7.51-2.16-1.27-3.89-3.39-7.22-3.91,1.61,6.75,5.88,11.26,9.3,16.25,1.73,2.54,3.74,5.57.34,7.83s-6-.34-7.85-3.07c-1.41-2-2.52-4.23-3.78-6.34-1.37-2.29-2.27-5-5.51-6.22-.5,3.45,1.67,5.27,3,7.43.76,1.22,1.49,2.51.57,3.92-1.07,1.64-2.71,1.41-4.28,1-3.42-.93-5.75-3.23-7.67-6.11-.69-1-.92-3-2.91-2.4-3.88,1.13-5.35-1.75-7-4.2C1047.75,429.5,1046.36,426.62,1042.66,425.48Zm21.79,406.39c-2.61.84-3.79,2.71-5.25,4.15a89.24,89.24,0,0,1-28.92,19.08c-3.56,1.48-3.79,2.94-2.7,6.14a315.7,315.7,0,0,1,12.2,45.87c.63,3.47,1.08,7,1.62,10.47a190,190,0,0,0,12.93-22.17c.73-1.38,1.08-3.39,3-3.3,2.2.1,2.35,2.3,2.75,3.94,1.11,4.62,2.1,9.26,3.19,13.88,1.52,6.43,5.8,9.85,12.16,10.82,5,.77,10.11,1.27,15.13,2.1,2.49.41,2.55-1.42,3-2.8,1.69-5.92,2.91-12,4.94-17.8,4.07-11.66,1.25-20.72-7.67-29.44C1079,861.31,1066.73,849.7,1064.45,831.87Zm41.83,269.24c-.3-.38-.59-.77-.88-1.15-11,10.08-25.67,13.43-37.55,21.86a12.07,12.07,0,0,0-4.4,5.16c-6.49,15.64-15.06,30.25-22.46,45.44-6.53,13.4-11.56,27.38-12.56,42.27-1.07,16-7.48,29.06-19,39.92-2,1.85-4.34,3.61-4.68,6.59a2.22,2.22,0,0,0,2.53.56,152.75,152.75,0,0,0,35.83-12.41c2.93-1.47,3.2-3.65,3.36-6.44,1-17.8,3.47-35.42,9.39-52.32,6.08-17.37,15.05-32.65,32.47-41.12,2.45-1.19,2.68-2.87,2.32-5.17-1.79-11.59,1.62-21.92,7.86-31.52C1101,1108.86,1103.68,1105,1106.28,1101.11ZM621.49,1236.18c9-.06,15.13-.3,21.1-2.12,4.06-1.24,5.2-3.34,2.85-7.45-4-6.92-10.67-10.2-17.27-13.33a281.5,281.5,0,0,0-57.66-20.35c-13.36-3.06-26.34-1.69-37.89,6.45-4.3,3-8,7.26-6.91,12.79s6.61,6.76,11.48,7.84c12.37,2.74,24.83,4.94,37.14,8.08C590.68,1232.26,607.24,1235.89,621.49,1236.18Zm668.44,106a20.58,20.58,0,0,0,.49,3.16c6.2,18.34,12.25,36.73,19.3,54.76,1.18,3,2.45,1.63,3.74.25a34.13,34.13,0,0,1,9.39-7.64c3.5-1.76,4-4,3.17-7.7-2.33-9.94-4.45-20-4.87-30.2-1.15-27.63-5.25-55.06-5.22-82.76,0-3.65-.38-7.38-2.39-10.7-1.85-3.06-3.74-3.36-6.14-.59-5.38,6.18-9.75,12.74-11.27,21.12C1292.47,1302,1295.9,1322.79,1289.93,1342.14ZM967.33,523.38h-.19q-1.18-35.11-2.34-70.23c-.32-10.18-.15-9.92-9.59-6.47-4.71,1.72-6.29,4.25-6.32,9.24-.11,18-.77,35.92-1.12,53.88-.57,28.69-.93,57.39-1.7,86.07-.14,5.26,1.69,6.88,6.57,6.55a68.32,68.32,0,0,1,11.08,0c4.45.42,5.73-1.25,5.59-5.61C968.51,572.32,968,547.85,967.33,523.38Zm273.48,418.31c-.94,1.8-1.52,2.68-1.91,3.65-11.3,28.44-13.83,57.59-6.88,87.45,1.49,6.41,5.87,10.1,12.13,10.77a67.35,67.35,0,0,1,31.91,11.51c1.32.92,2.52,2.55,4.5,1.91C1267.4,1018.82,1254.26,980.72,1240.81,941.69ZM772.81,1227c10.85,4,20.74,7,31.29,7.17a19.51,19.51,0,0,1,3.16.16c1.81.33,4.47,0,4.37,2.69-.09,2.49-2.68,2.56-4.51,2.67a51.51,51.51,0,0,1-8.42-.21c-8.84-.92-17.2-3.68-25.41-7-16.43-6.55-33.09-5.83-49.81-1.5-3.69,1-7.62,2-10.86,6.15,10.78-1.48,19.62,1.92,28.44,5.64a84.09,84.09,0,0,0,23.52,5.79c16.8,1.87,33.62,3.34,50.25,6.68a75.72,75.72,0,0,0,25.8.45c9.53-1.39,12.81-8.17,8-16.44A32.4,32.4,0,0,0,832,1225.18C812.41,1217.57,793.05,1220.83,772.81,1227ZM639.48,931.24a10.33,10.33,0,0,0,1.68.64c3,.21,6,.23,9,.59,23.08,2.76,46.37,4.94,65.06,21.2,2.55,2.22,3.12.71,3.43-1.72a342.5,342.5,0,0,0,2.75-39.45c0-2.24-.7-3.53-3-4.28-7.67-2.53-15.23-5.44-22.94-7.86-9.54-3-18.87-1.74-27.61,2.89C655.73,909.66,646.86,919.47,639.48,931.24Zm-3,6.53a78.6,78.6,0,0,0-28.5,4.87A32.93,32.93,0,0,0,594.15,952c-2.46,2.89-2.58,5.59.71,8.12a66.7,66.7,0,0,0,12.51,7.83,12.41,12.41,0,0,0,13.87-1.73,77.7,77.7,0,0,1,13.91-8.58c3.27-1.66,6.69-2.41,10.18-.91,7.19,3.09,14.67,3.42,22.3,2.7,15.46-1.46,29.3,2.13,41.13,12.68a46.89,46.89,0,0,0,17,9.41c1.62.53,3.77,1.62,5,.23s-.28-3.33-1.21-4.71c-9.24-13.8-20.94-24.91-36.9-30.23C674.48,940.74,655.55,938.65,636.51,937.77ZM1116.29,686c.1,1.74.15,3.49.32,5.23,4.24,44.09,4.25,88.22,1.07,132.36-.79,10.86.55,12.5,11.7,13.19,1.41.08,2.82.13,4.22.16a2.09,2.09,0,0,0,2.29-1.68c1.84-5.7-1.12-10.15-6.82-10.66-2.73-.25-7.13,1.07-7.58-2.64-.4-3.24,4-3.43,6.51-4.09,5.1-1.32,7-4,6.72-9.45-.65-11.24-.83-22.51-.83-33.77,0-28.35-1.53-56.67-.67-85,.11-3.63-.22-7.93-3.62-9.24-2.84-1.09-3.89,3.27-5.68,5.23C1121.57,688.2,1119.42,690.15,1116.29,686ZM989.76,540.46c.92-23.89,1.7-43.77,2.42-63.65.07-2,.69-4.08-1.78-5.56-5.59-3.36-10.79-2.61-15,2.37-2.89,3.43-3.84,7.25-3.7,11.72q1.83,56.74,3.41,113.49c0,1-.47,2.46.57,2.93,3.29,1.5,6.51-.3,9.76-.63,2.81-.29,2.31-2.66,2.37-4.51C988.54,576.56,989.21,556.5,989.76,540.46ZM583.4,1064.79c-14.19-.46-27.19,3.21-38.69,11.54-5.61,4.07-9.79,9.21-9.24,16.77.3,4,1.34,8,5.34,9.59,3.8,1.52,6.57-1.2,9.12-3.79,4.48-4.56,9.4-8.55,15.64-10.41,17.38-5.16,34.34-4.73,50.69,3.92,3.43,1.81,7,3.21,11.06,3.06,6.13-.21,8.31-3.51,5.65-9.09s-7.13-9.1-12.25-12A71.29,71.29,0,0,0,583.4,1064.79Zm481.48-411.37c-3.23,1.47-4,3.94-5.45,5.87-2.49,3.41-4.79,7-7.36,10.31-1,1.35-3.51,3.34-4.27,2.09-2.86-4.78-6.21-6-11-3.22-4.06-4.53-5.7-.1-7.85,2.16-2.78,3-5.41,6-8.22,9a8.91,8.91,0,0,0-2.6,6.11c-.47,9.33-1,18.66-1.69,28-.3,4,.74,5.6,4.47,3.12a112.6,112.6,0,0,1,35-15.47,14,14,0,0,0,2.91-1.25c1.38-.7,3.24-1.32,3.16-3.07-.07-1.5-1.94-1.87-3.18-2.45-7.4-3.47-13.92-8.26-20.17-13.43-1.42-1.18-3.4-2.85-2-4.83,1.28-1.74,3.35-.47,4.76.47,10.24,6.88,22.45,9.21,33.29,14.68,1.56.79,2.77,1,4.13-.63,2.5-2.95,5.53-5.47,7.9-8.5s6.62-6.77,2.61-10.46c-3.84-3.55-7.74.38-10.35,3.24-4.79,5.25-10.56,5.8-16.92,4.9-1.71-.25-3.83-.24-4.16-2.47-.27-1.81,1.28-2.86,2.7-3.55,3.49-1.68,7.11-3.08,10.57-4.81,3.63-1.8,7.32-3.66,8.93-7.79.53-1.36.74-3-.54-3.91-1.47-1.09-2.61.21-3.58,1.22-2,2-3.8,4.15-5.83,6.09-1.15,1.1-2.66,2-4.32,1.27s-1.65-2.55-1.58-4.13C1064.45,659.29,1064.66,656.68,1064.88,653.42ZM997.62,475.64c0,5.55.13,9.74,0,13.92-1.13,30.95-2.34,61.91-3.44,92.87-.06,1.69-1.21,4.29,1.76,4.72,5.16.76,9,3.91,13,6.76,2.84,2,3.46,1,3.48-2q.32-51.23.73-102.45c0-1.57.09-3.1-1.55-4.2C1007.32,482.47,1003.2,479.52,997.62,475.64Zm-20.73,387.2a15.71,15.71,0,0,0,.45-1.89c6.6-65.77,7.71-131.82,10.63-197.79.24-5.47-2.9-5-6.29-4.86-3.21.14-6.91-1.46-6.87,4.71.2,30.12.06,60.24-.19,90.36C974.32,789.82,974.61,826.26,976.89,862.84Zm266.27,422.75c1.18-8.16-2.19-14.74-6.88-21-4.34-5.8-8.83-11.52-14.4-16.11-11.76-9.7-16.6-22.37-17-37.15a44.16,44.16,0,0,0-3.07-15.46q-5.33-13.21-10.94-26.33a48.6,48.6,0,0,0-10.79-15.52c-2.8-2.75-5.92-5.1-10-5.4-1.81-.13-4.3-1.29-5.32.72s1.24,3.44,2.61,4.67c16,14.27,23.07,32.78,23.83,53.49.72,19.43,7.71,35.12,22.78,47.31,2,1.66,3.82,3.65,5.8,5.39a41.83,41.83,0,0,1,13.7,24.39c.59,3.11,1.26,6.21,2.06,9.27.41,1.58,1.39,3,3.24,3,2,.05,3.23-1.25,4-3C1243.9,1291.2,1243.22,1288.35,1243.16,1285.59Zm-131.81-726.2h-1.9c0,12,.17,24,0,35.91-.26,14.93-.45,14.79,13.58,9.18,3.78-1.51,4.8-3.56,4.66-7.48-.89-26.22-1.54-52.46-2.24-78.69-.19-7.24-.14-7.24-7.35-6.91a5.88,5.88,0,0,1-2.1-.08c-4.23-1.49-4.66.88-4.64,4.22C1111.4,530.16,1111.35,544.77,1111.35,559.39Zm43.79-82.91c2.66-.81,4.77-1.91,6.93-2,4.94-.23,5.56-3.08,5.89-7.26,1.88-24.21,3.8-48.42,4.47-72.7.81-29.47,1.22-59,.47-88.45C1166.32,362.64,1160.42,419.27,1155.14,476.48ZM329.56,588.29c.12,13.42,10.89,23.16,24.26,21.92,5.79-.54,11.24-9.29,8.73-14.65-5.54-11.82-6.28-23.68-1.05-35.73,1.16-2.69.61-3.36-2.26-3.23C343.66,557.33,329.43,572.45,329.56,588.29Zm320.86,701.89.64.41a42.05,42.05,0,0,0,3-5.49c9.58-25.88,14.46-52.08,7.48-79.67-2.64-10.44-7.51-16.9-18.28-19.43-7.14-1.68-13.43-1.49-19.78,2.21-3.39,2-3.88,3.28-.43,5.78a98.48,98.48,0,0,1,22,22c12.11,16.61,16.11,35,11.2,55C654.63,1277.49,652.37,1283.8,650.42,1290.18ZM955.49,149.33l-1.32-.16c0,13.56.2,27.11,0,40.66q-1.54,86.67-3.31,173.33c-.11,5.52,1.83,7.18,8.84,6.76,4.67-.28,2.14-4.14,2.09-6.12-1-38-2.22-76.08-3.35-114.12Q956.9,199.51,955.49,149.33ZM704.75,1112.26c-1.57-26.59-3.7-53-11.85-78.68-1.82-5.74-6.43-6.7-10.42-8.57-3.35-1.57-3,3.48-5.15,4.66-1.22.66-2.12,1.91-3.35,2.52-2.4,1.2-2.24,2.45-1,4.56,9.86,16.3,15.92,34.08,19.87,52.61,2.75,12.92,5.07,25.93,5.85,39.15.16,2.63.66,4.55,3.75,4.46,3.25-.1,2.2-2.61,2.23-4.32C704.81,1123.19,704.75,1117.73,704.75,1112.26Zm27,11.51c.7-1.06,1.12-1.44,1.22-1.9,6.66-28.62,21-52.3,44.78-70,2.41-1.79,1.35-2.7-.58-3.62a52.37,52.37,0,0,0-13-4.09c-11-2-12.19-2-17.79,7.87C733.85,1074,727.78,1097.5,731.73,1123.77Zm-43.47,141c2-2.06,1.83-4.14,2.3-6,5.3-20.9,14.38-39.78,30.36-54.66,3.62-3.36,5.22-5.84,3.43-11-1.26-3.57-1.8-4.19-5.05-2.37-6,3.36-12.32,5.7-19.14,2.86-3-1.25-4-.33-4.92,2.34-1.81,5.52-4.19,10.87-5.62,16.48C685.27,1229.63,683.6,1246.84,688.26,1264.82Zm460.2-667.63c6.73-.25,6.79-.24,7.61-6.79q2.57-20.67,5-41.38c.18-1.54.53-3.54-.22-4.61-2.39-3.39-1.31-6,.58-9.13,2.8-4.66,1.35-8.06-3.46-9.61-3.92-1.26-4.45-3.56-1.42-6.52a12.64,12.64,0,0,1,3.4-2.48c4.15-1.89,4.35-5.57,4.49-9.33.08-2.28-.89-2.67-3-2-6.55,2.18-9.59,6.1-10.23,13-2.24,24.35-4.82,48.67-8.16,72.9C1142.24,597.44,1142.17,597.43,1148.46,597.19ZM683.4,1127.68c-5.47-27.39-12.8-54.07-30-76.84-2.59-3.42-4.66-9.44-8.64-9.1-5.34.47-8.59,6.08-11.75,10.58-1.78,2.54-1.67,4.13,1.23,5.83a65.3,65.3,0,0,1,13.17,10.47c15.23,15.24,23.81,34.14,30.09,54.32.62,2,1,4.1,1.74,6.07.5,1.35,1.76,1.63,3.08,1.28S683.43,1128.76,683.4,1127.68Zm-44.6-42.28c-.89,12.7-2.3,14.19-14,14.44-3.77.08-2.69,1.65-1.59,3.45,6.49,10.57,14.32,20,24.34,27.4a7.45,7.45,0,0,0,5.88,1.56c4-.57,8-1.06,12-1.31,3.28-.2,3.87-1.38,2.52-4.3a163.08,163.08,0,0,0-10.38-18.93A108.9,108.9,0,0,0,638.8,1085.4Zm71,27.36c0,5.46.68,11-.19,16.34-.91,5.54,1.79,7.07,6.07,8.16,2,.53,3.2.47,2.44-2.08-.35-1.18-.73-2.35-1-3.55-7.32-31.3-7.46-61.81,10.34-90.2,1.78-2.83.63-3.42-1.8-4.26-8.19-2.86-16.77-4-25.19-5.8-3.74-.81-2.66,1.37-2.08,3.27C706.19,1060.1,709.17,1086.26,709.83,1112.76Zm-16.73,12c-2.29-28.66-7.94-56.06-21.72-81.33-5.52-10.12-6.14-10.52-17.27-7a4.83,4.83,0,0,1-.5.16c-3.4.86-4.62,2.06-1.52,5.13a82.23,82.23,0,0,1,11.55,15.07c13.09,21,19.83,44.2,24.65,68.16.44,2.21-.57,6.58,3.21,6.09S692.28,1126.67,693.1,1124.78Zm116.65-57.31c-7.53-4.47-14.08-8.14-20.37-12.21-3-2-5.21-1.62-8,.47-17,12.81-29.27,29.26-37.77,48.64-1.37,3.13-2.33,6.44-3.49,9.67C758,1091.09,779.23,1073.5,809.75,1067.47Zm-80,75.8c.91-1.35,0-2.46-.25-3.6-2.22-8.9-4.24-17.87-4.34-27.06-.26-24.38,5.63-47,19.55-67.33.75-1.09,3.42-2.51.08-3.83-7.38-2.93-10.91-1.85-14.54,5.09-15.85,30.31-14.76,61.62-5.22,93.38C725.71,1142.26,727.56,1143,729.73,1143.27Zm71.7,115.25c-3.94-.53-7.8-.7-11.47-1.62-4.9-1.23-8.42.72-11.92,3.73-6.73,5.82-10.71,13.37-14.12,21.38a109.51,109.51,0,0,1-17.46,28.74c-1.49,1.74-3.11,3.38-5.12,5.54,4.45.6,6.89-1.58,9.23-3.59a138.73,138.73,0,0,0,20.7-22.47c7.6-10.16,15.43-20.14,26.37-27.08A7.72,7.72,0,0,0,801.43,1258.52Zm31.72-169.28c-3.73-6.75-8.65-10.72-13.35-14.93a7.43,7.43,0,0,0-6.79-1.74c-24,4-43.26,16.12-59.16,34.11a23,23,0,0,0-1.61,3c12.71-8.57,24.63-15.47,38.15-19.15C804.23,1086.76,818.15,1086.51,833.15,1089.24Zm284.87-837-.67-.09q-1.68,76-3.41,152.08c-.07,3,.67,3.87,3.89,3.54,4.26-.44,4.45-2.77,4.36-6.11Q1120,326.93,1118,252.23ZM894.31,822.89c5.08-5.55,9.17-10.06,13.31-14.54a76,76,0,0,0,13-19.1c1.63-3.45,1.5-6.1-1.83-8.68-4.55-3.52-10.62-4.13-14.48-9C898.16,788.26,895.86,804.75,894.31,822.89ZM639.54,1297.64c8.5-17.12,15.9-34.42,11.77-54.26-1.56-7.45-1.75-7.46-8.09-3.67-1.92,1.15-1.89,2.7-2.19,4.39-1.13,6.41-2.2,12.83-3.49,19.2C635.2,1274.83,634.42,1286.27,639.54,1297.64ZM839.1,1114.32c-.41-4.73-.84-8.49-1-12.28-.2-4.06-2.08-6.22-6.13-7.23-25.09-6.22-47.23,1.29-68.3,14.2C789.23,1099.83,814.33,1097.87,839.1,1114.32Zm334.27-294.64c-8.29-.55-15.8,3.22-23.83,4.15-8.65,1-7.92-1-7.56,9,0,.53.1,1,.08,1.58-.11,3.24,1.66,4.41,4.63,4.13,3.67-.33,7.33-.88,11-1.08,3-.17,6.28.62,5.7-4.5-.22-2,2.17-2.93,4.2-3.31,3.9-.72,7.67,0,11.46.91,3.57.84,7.06,2.32,10.8,2.1,1.67-.1,3.87-.1,4.55-2,.56-1.58-.84-3-1.84-4.14C1187.49,820.52,1180.47,820,1173.37,819.68ZM1133.76,600c2.38-2.1,2.17-3.78,2.35-5.29,1.28-10.47,2.6-20.92,3.75-31.4q2.23-20.16,4.21-40.35c.15-1.58,1.27-4.75-2.31-3.55-3.8,1.28-6.64-.24-10.22-2.86C1132.29,544.67,1133,571.78,1133.76,600ZM852,485.14h-.31c0-5.26-.07-10.53,0-15.8,0-2.5-.89-4-3.39-4.48s-4.79-1.1-7.18-1.68-4.1-.1-4.13,2.91q-.18,18.44-.46,36.87c0,2.48,1,3.32,3.5,3.22,11.43-.49,12-1,11.94-12.08Zm118.46-17.78,1.95.63a30.87,30.87,0,0,1,18-12,3.13,3.13,0,0,0,2.72-3.28q.32-8.94.77-17.87c.11-2.34-.66-2.95-3.09-2.63-6.37.84-12.18,3.19-17.94,5.81a4,4,0,0,0-2.47,4.16C970.53,450.6,970.48,459,970.48,467.36Zm42-174.08-.78.2q-4.67,38.25-9.31,76.51c-.8,6.66.56,8.11,7.45,9,2.82.37,4.27,0,4.2-3.37C1013.42,348.19,1013,320.73,1012.45,293.28ZM839.15,606.09h.23c0,1.41,0,2.82,0,4.22.5,13.89.5,13.82,14.52,14.76,2.75.18,3.81-.23,3.53-3.26-.53-5.59-.63-11.23-1-16.84-.87-13-.9-13-14.07-14.4a4.71,4.71,0,0,1-.52-.09c-2.63-.7-3.51.43-3.33,3C838.79,597.66,838.94,601.87,839.15,606.09ZM722.7,1257.45c0-4.16,0-7.85,0-11.55,0-1.71-.27-3.27-2.42-3.35-3.7-.15-8-.42-10.66,1.75s-.67,6.26.13,9.47a16.42,16.42,0,0,0,1,2.45c6.5,15.27,4.95,22.25-7.6,32.77-1.93,1.61-2.16,2.67-.73,4.71,3.22,4.58,4.26,4.77,8.53.89a24.89,24.89,0,0,0,5.57-7.62C721.12,1277.51,724.29,1267.73,722.7,1257.45Zm9.76,56.76c9.92-6.07,16.84-14.84,22-24.89,5.91-11.51,9.95-24.09,21.51-33.34-5-.77-8.54-1.19-12.08-1.93-3-.62-4.73.27-6.35,3-4.21,7.11-6.24,14.89-7.74,22.85a65.25,65.25,0,0,1-12.88,28.54C735.42,1310.37,734,1312.29,732.46,1314.21Zm-118-12a168.11,168.11,0,0,1-14.74-28.63c-4.07-9.92-8.44-19.68-13.42-29.22-4.12-7.88-10.1-11.64-18.74-12-.1,2,1.58,3,2.56,4.32,8.8,11.88,17.18,24,23.85,37.27,3.08,6.12,6.18,12.24,9.58,18.19C606,1296.53,609,1300.67,614.43,1302.18Zm138.83-47.77c.4-1.73-.23-2-.84-2.42-6.59-4.35-10.43-2.53-11,5.29-.22,2.8-.5,5.61-.54,8.42a46.77,46.77,0,0,1-11.06,30.09c-2.69,3.25-5.53,6.38-8.15,9.69-1,1.28-3.87,2.51-1.32,4.6,1.94,1.58,4,3.27,6.8.44,8.37-8.39,15-17.65,17-29.67a78.24,78.24,0,0,1,8.4-24.87A16.68,16.68,0,0,0,753.26,1254.41ZM632.6,1136.22c-14.59-10.15-24-23.79-29.63-39.85-1.77-5-4.64-6.43-9.14-6.86-2.51-.24-4,.32-2.89,3.09,6.84,17,15.76,32.55,30.94,43.7C625.28,1138.8,628.47,1139.15,632.6,1136.22Zm105.33,111.85c-.42-2.77-4.84-2.5-7.71-3.16-4-.92-2.06,2.93-2,4.32,1.29,19.4-.26,37.79-16.7,51.39-1.69,1.4-.64,2.45.5,3.36s2.54,3,4.36.79c8-9.52,17.31-18.29,18.94-31.58C736.29,1265.51,736.94,1257.81,737.93,1248.07Zm-125.23-7.6c-3-.22-5.3-.74-4,2.65,3.62,9.13,3.71,18.93,5.35,28.43,2,11.78,5.87,22.79,13.68,32.11.88,1,1.74,2.6,3.39,1.74s.53-2.09-.11-3.08c-7.08-10.84-9.17-23-9.69-35.67-.26-6.31-1.07-12.6-1.53-18.91C619.46,1242.61,616.91,1240.06,612.7,1240.47Zm5.12-99.43c-18.88-20.15-18.84-20.17-31.91-49.41-2.11-4.73-6.22-2-9.17-1.3-3.16.72-.84,3.25-.15,4.63,8.73,17.63,19.45,33.77,34.93,46.36C613.88,1143.23,615.53,1142.58,617.82,1141Zm562.45-283.42c-13.88-2.37-23.34,6.36-33.57,13.06-2.64,1.73-1.52,4.44-1.08,6.78.32,1.71,1.8,1.39,3,1,11.5-3.85,23.34-6.87,33.64-13.63,2.34-1.53,5.66-3.49,4.86-6.29C1186.16,855.22,1182.51,858,1180.27,857.62Zm-511.76,257c-1.3-6.37-3.94-12.09-6.83-17.68-7-13.47-15.92-25.3-28.69-33.87-1.19-.8-2.64-2.91-4-1.41-2.11,2.36-2.87,5.65-3.25,8.77-.3,2.48,2.29,2.8,4,3.56a56.75,56.75,0,0,1,16.71,11.77C655.1,1094.39,661.76,1104.49,668.51,1114.61ZM850.45,385.25h.71c0-5.09.14-10.18-.06-15.26-.1-2.31,1.31-5.89-1.23-6.67-2.92-.9-2.26,3.15-3.47,4.82-1.59,2.21-4.88,3-5,6.41-.48,10-1,20-1.63,29.95-.29,4.51,3,3.49,5.33,3.58s5.54,1.12,5.43-3.36C850.33,398.23,850.45,391.74,850.45,385.25Zm.34-155.94a35.21,35.21,0,0,0-.63,4.13q-2.94,43.41-5.76,86.83c-.1,1.64-1.23,4,.72,4.79,2.37,1,3.61-1.62,5.11-2.9,1.66-1.41,1-3.61,1-5.5-.12-11.78-.37-23.55-.42-35.33C850.74,263.57,850.79,245.82,850.79,229.31ZM587.54,1237.41c10.08,14.46,14.6,31.44,23.84,46.09-3-11.31-2.85-23.09-5.93-34.33C602.46,1238.27,600,1236.51,587.54,1237.41Zm73.83-249.12c0,1.93,0,3.86,0,5.79,0,1-.25,2.13,1.2,2.51,2.22.58,7.25-2.69,7.43-5,.61-7.93,1.91-15.68,5.33-22.94,1.14-2.41.61-3.72-2.18-3.63-3.85.13-7.7.4-11.55.51-3,.09-3.48,1.42-2.68,4.1A53.52,53.52,0,0,1,661.37,988.29ZM794.2,1148.91c-7.13-2.34-12.44,0-17.28,4.48-5.23,4.81-9.73,10.12-12.43,16.8-1.43,3.54.48,6.1,3,7.58s3.48-1.57,4.55-3.14a107.42,107.42,0,0,1,9.58-12.57C785.69,1157.73,789.82,1153.48,794.2,1148.91Zm330.15-693.19c-11.78,4.13-11.78,4.13-11.95,14.19,0,2.29-.08,4.57-.11,6.86-.09,7,1.85,8.73,9,8.56,2.35-.05,3-1,3-3.13C1124.31,473.62,1124.35,465.05,1124.35,455.72Zm-517,688.43c-16.75-13.07-27.15-30.2-35.48-48.81-.84-1.87-1.29-4.27-4.36-3-3.26,1.36-1.39,3.48-.71,5.22a104.79,104.79,0,0,0,34.83,46C603.18,1144.77,604.59,1146.22,607.34,1144.15Zm506.07-706.58H1113c0,4.23,0,8.46,0,12.69,0,1-.76,2.62,1.2,2.91,3.3.48,9.19-4.8,9.12-8.27-.14-6.34-.39-12.68-.57-19-.07-2.86.31-5.52-4.29-5.24-3.91.24-5.33,1.44-5.08,5.31S1113.41,433.7,1113.41,437.57Zm-114.14,5H999c0,2.63.13,5.28,0,7.9-.18,2.89.91,3.06,3.42,2.4,11-2.89,11-2.81,11.08-13.95a9.14,9.14,0,0,1,0-1.57c.77-4.45-.8-6.19-5.57-6.21-8.45,0-8.45-.33-8.66,8.27C999.25,440.45,999.27,441.51,999.27,442.56ZM657.06,989a89.43,89.43,0,0,0-2.66-17.12c-1.56-6.33-6.26-8.37-11.61-9.94-1-.3-2.16-.59-2.87.44s.22,1.67.66,2.36c6.36,9.92,9.67,20.92,11.56,32.44.19,1.14,0,2.7,1.83,2.57a2.41,2.41,0,0,0,2.36-2.38C656.59,994.59,656.82,991.8,657.06,989Zm-15.55,145.08c0-2.17-2-2.73-3.19-3.89-8.38-8.18-16.26-16.89-20.34-28-2.09-5.66-6-7-10.87-8.48C609.93,1108.8,632.35,1134.92,641.51,1134.09Zm33.88-142.36c6-2.13,11.56-3.4,12.82-10.6.48-2.79,2.67-5.27,4-7.91.91-1.74,4-3.72.21-5.31-3.27-1.35-7.4-5-10.25-.48C677.73,974.57,675.7,982.72,675.39,991.73Zm-45.18,294.35a78.71,78.71,0,0,1,.31-10.43c.63-10,3.88-19.59,5.27-29.47.21-1.51,1.47-4-1.25-4.27a48.79,48.79,0,0,0-9.43.2c-1.92.14-1.31,1.64-1.06,2.81a144.24,144.24,0,0,1,2.79,28.73A22.5,22.5,0,0,0,630.21,1286.08Zm479.22-598.71-1.24-.23c-.33,1-.61,2-1,2.89-.55,1.38-.16,3.63-2.24,3.73s-2.83-1.85-3.71-3.37a6.83,6.83,0,0,1-.74-2c-.48-2.38-1.69-2.67-3.11-.89a79.53,79.53,0,0,1-9.76,9.75c6.79,3.18,13.14,5.7,19.95,7,2.41.45,3.76,0,3.42-2.85C1110.44,696.72,1110,692,1109.43,687.37Zm-461.71,311c-.14-.75-.42-2.66-.86-4.53a87.25,87.25,0,0,0-10.36-25.74c-2.82-4.62-5-.2-7.2.87-3,1.46-1.09,2.93.34,4.31,7.6,7.29,11.83,16.39,14.2,26.49.32,1.34.43,3,2.47,2.63C647.85,1002.07,648,1000.81,647.72,998.33ZM1283.64,543c-11.13-5.25-21.26-7.77-32.2-5.11-1.09.26-2.74.21-2.67,1.88,0,.59,1.06,1.35,1.79,1.65C1260.86,545.7,1271.34,547.29,1283.64,543ZM1013.29,477.4c0-5.76.05-10.08,0-14.41,0-2.28.89-5-3.39-4.79-9.54.47-11.64,1.3-11.43,5.59,0,1.06,0,2.31,1,2.86C1004.14,469.26,1008,473,1013.29,477.4ZM841.09,712.31c1-10.83-2.09-22.71-7.16-27.66-1.83-1.8-4.26-4.47-6.68-2.45-2.07,1.73.91,3.94,1.72,5.92.13.31.45.55.59.86,1.89,4.42,9.14,7.34,3.87,13.82-.21.27.39,1.29.72,1.9C835.73,707.63,837.39,710.5,841.09,712.31ZM577.87,1128.58c-6-9.79-11.8-19.59-15.38-30.5-.86-2.64-1.91-2.27-3.69-.91-2.66,2-3.1,4-1.46,7.15C562.38,1114,569.6,1121.71,577.87,1128.58Zm192.13,21-1-1.35-19.83,6.6c-.32.11-.89.36-.88.5.45,4.5,4.89,5.86,7.13,9,.77,1.07,2.25,2.44,3.27.31C761.47,1158.84,766.06,1154.44,770,1149.56ZM974.54,635.37c0,1.9,0,3.3,0,4.71,0,1.69.66,2,2.28,1.67,5.63-1.22,11.61-7.15,12.78-12.87.23-1.12,1.14-2.74-.94-2.73a31.79,31.79,0,0,0-13.17,3.33C973.3,630.5,974.89,633.69,974.54,635.37Zm194.69-105.93c-.63,2.94,1,3,3.31,2,6.49-2.78,12.58-6.21,17.7-11.16,1-.93,2.6-2.12,1.61-3.46-1.23-1.68-2.95-.27-4.19.51-4.91,3.12-9.94,6-15.63,7.38C1169.64,525.34,1169.2,527.08,1169.23,529.44ZM712.11,981.58c-2.51-1.9-3.86-3-5.26-4-8.23-5.92-10.16-5.32-13.83,4.25-.07.17-.16.32-.23.48-.91,2.12-.33,3.18,2,2.44C700,983.12,705.41,982.8,712.11,981.58ZM874.26,555.85c1.21-1,3.84.3,5.08-2,.44-.83-.31-1.71-1.07-2.18a40.18,40.18,0,0,0-14.66-5.7,2.86,2.86,0,0,0-3.4,1.89c-.53,1.67.6,2.64,1.75,3.49A24.75,24.75,0,0,0,874.26,555.85Zm-54.72-142c-3.07-.28-4.66,0-5.17,1.87-.46,1.7,1,2.54,2.14,3.23,3.83,2.24,8.11,3.31,12.36,4.38,1.33.33,2.92.88,3.52-1.06.51-1.61.35-3.23-1.37-4.09C826.94,416.16,822.81,414.22,819.54,413.89Zm61.88,276.73c0-2.89-8.58-10-11.59-9.66-1.87.21-1.55,1.48-1.45,2.72.26,3.24,7.69,9.5,11,9.3C880.93,692.88,881.54,692.11,881.42,690.62Zm-330.3,495.12c-1.63-2.12-3.21-4.15-4.74-6.22a5.22,5.22,0,0,0-6.56-1.58c-2.49,1.47.26,3.49,1,5.21C543,1188.06,546.6,1187.8,551.12,1185.74ZM1194.53,695c-2-5.2-6.06-8.4-10.35-11.38-.83-.58-2-1.22-2.85-.27s-.09,2,.52,2.78A25.61,25.61,0,0,0,1194.53,695Zm-642,483.34c2.74,4.35,4.42,8.84,10.42,7.63C560.37,1176.38,562.31,1177.92,552.53,1178.35ZM1150.13,806a25.73,25.73,0,0,0-9.07-6.08C1140.05,807.82,1141,808.46,1150.13,806ZM1019.92,664.43c2.56-3.08,5-5.52,6.28-9.55C1021,656.27,1018.51,658.64,1019.92,664.43Z" transform="translate(-323.31 -109.63)"/><path class="cls-1" d="M1449.82,365.5c-.45,58.27-48.75,102.34-103.34,97.92-37-3-63.88-22.23-79.64-56.22-1-2.25-3.16-5.62-.35-7.07,3.14-1.62,4,2.49,5.25,4.51,16.27,26.12,40.1,38.92,70.47,37.35,28.22-1.45,50.64-15.88,62.46-40.94,22.6-47.91-6.45-98.34-49.92-108.12-35.3-7.94-68.43,7.89-84.89,40.13-1.76,3.45-3.42,6.95-5.19,10.4-.56,1.1-1.3,2.32-2.83,1.57-1.12-.54-1.08-1.74-.87-2.79a26.72,26.72,0,0,1,1.16-4.6c13.55-34.72,36.62-59.54,74.28-66.78,53.48-10.28,100.82,24.08,111,73.68A120.17,120.17,0,0,1,1449.82,365.5Z" transform="translate(-323.31 -109.63)"/><path class="cls-1" d="M1577.74,994.29c-14.59,30.4-52.27,43.84-74,17.51a56.51,56.51,0,0,1-9.07,12.82c-9.9,10.29-24.92,14.22-37.42,4-1.84-1.49-3.21-1.21-5.19-.34-24.88,11-58.88.42-73.06-22.72-3.18-5.17-5.54-10.65-5-16.92.14-1.69-.09-3.95,2.22-4.22,2.56-.3,2.5,2.2,2.75,3.73,4.29,26.62,37.2,42.22,61,37.18,9.48-2,17.7-6,22.1-15.38.78-1.66,1.91-3.3,4-2.41,2.41,1,1.84,3.13,1.16,5a20.48,20.48,0,0,1-5,8c-2.89,2.68-1.54,3.9,1.11,5.28,6.73,3.52,13.41,4,20.12,0,8.13-4.74,13.33-11.85,16.68-20.48.69-1.78.91-4.14,3.19-4.45,2.78-.39,3.14,2.33,4.09,4.08a27.84,27.84,0,0,0,28.62,14.76c27.56-3.53,46.26-32.78,37.83-59.18-.62-1.94-2.22-4.44.61-5.44,2.58-.91,3.45,1.88,4.31,3.72,3.5,7.46,3.75,15.35,2.36,23.28a9.92,9.92,0,0,0,1,7c8.57,15.7,22,23.45,39.64,23.59,17.77.13,31.77-7.3,40.48-23.13,5.64-10.24,5.7-21,1.61-32.77-9.16,10.59-20,16.69-33,18.76-15,2.39-28.71-.93-40.64-10.57a33,33,0,0,1-4.72-4.95,2.9,2.9,0,0,1,.44-4.25c1.5-1.42,2.86-.93,4.16.29s2.25,2.24,3.42,3.31c22.48,20.35,62.4,9.9,72.06-18.86a35.8,35.8,0,0,0-24-45.69c-2.71-.8-3.78,0-4.76,2.34a42.8,42.8,0,0,1-11.73,16.08c-1.73,1.48-4.06,3.46-5.94,1.21-1.62-1.94.72-3.79,2.16-5.29,13.41-14,16.85-30.53,12-48.87-7.51-28.62-36.67-48.82-64.54-45.07a45.68,45.68,0,0,0-22.53,9.69c-1.75,1.39-3.89,3.66-5.83,1.16-1.52-1.95.62-3.86,2.17-5.33.76-.73,1.56-1.43,2.39-2.09,5.58-4.5,5.42-6.53-.9-10.77-11.82-7.94-32-4.14-42.75,8-.58.66-1,1.41-1.61,2.09-1.07,1.31-2.36,2.39-4,1.25s-1.27-2.86-.56-4.3c2.57-5.25,6.87-8.87,11.77-11.8a40.26,40.26,0,0,1,19.06-5.65c3.15-.16,4-1.38,4.65-4.27,3-13.64-1.45-25.46-8.93-36.35-6.66-9.71-16-16.23-27-20.49a22.3,22.3,0,0,0-10.35-1.58c-3.71.34-6.12,1.51-4.56,5.94a10,10,0,0,1,.3,3.67c-.07,1.48-.58,2.83-2.36,3a2.93,2.93,0,0,1-3.15-2.27,8.78,8.78,0,0,1-.38-1.53c-2-13.75-10.55-21.71-23.34-25-33.36-8.59-63.53-3.65-88.6,21.9-3.62,3.69-5,6.68-.68,10.82,2.11,2,3.46,4.87,4.93,7.47.9,1.61,2.3,3.75.09,5.16s-3.47-.7-4.61-2.25c-2.3-3.11-4.26-6.52-6.84-9.37-25.16-27.7-55.36-43.63-93.91-39.92-1.89.18-4.86,1.14-5.16-1.87-.28-2.73,2.72-2.77,4.64-3.29,10.09-2.77,20.32-1.36,30.48-.73a4.38,4.38,0,0,0,4.62-2.28c7.35-10.61,18-15.32,30.44-16.77a7.11,7.11,0,0,1,2.11,0c2.12.4,5.43-.13,5.41,2.86,0,3.32-3.18,2.8-5.67,2.9-10.37.43-19,4.74-26.11,12.19-2.31,2.41-1.94,3.43,1.27,4.51a126.1,126.1,0,0,1,47.7,29.45c1.42,1.38,2.3,2.87,4.35.25,17.53-22.38,41.63-30.78,69-31.94,6.22-.27,6.18-.14,3.71-6A39.16,39.16,0,0,0,1417,687.17c-.94-.81-1.94-1.53-2.85-2.36-1.33-1.2-2.92-2.68-1.6-4.46s3.32-.89,4.79.11c8.21,5.63,14.57,12.71,17.26,22.57.28,1,.49,2.06.75,3.09.72,3,3.29,2.5,5.16,2.27,2.53-.31,1.15-2.51,1-3.84-1.58-14.06-8.89-24.63-20.29-32.55-33.36-23.19-69-25.18-106-10.43-16,6.41-30,16.27-40.4,30.49-1,1.34-2.1,3.54-4.09,2.39-2.48-1.44-1.18-3.78-.14-5.57a68.07,68.07,0,0,1,25.6-25.43c34.15-19.19,69.86-22.7,106.8-8.85,11.52,4.33,21.37,11.38,30.1,20.1s12.87,19.24,14,31.11c.31,3.21,1.38,4.57,4.33,5.5,10,3.15,18.79,8,24.32,17.43.81,1.39,1.66,2,3.4,1.34,8.09-3.15,15.68-.91,22.88,2.75,19.27,9.77,31.38,25.08,35.36,46.55a29,29,0,0,1-.7,14.11c-1,3.19-.62,4.69,2.87,5.59a26,26,0,0,1,15,10.22c1.15,1.59,2.16,2.58,4.31,1.7,38.63-15.81,88.8,25,81.72,73.59-.48,3.34.66,4.15,3.45,5a38.44,38.44,0,0,1,18.09,11.44c2.22,2.59,4.41,3.2,7.73,3,22.43-1.22,42.22,22.38,37.28,44.21-3.1,13.74-14.56,21.9-30,21-3.48-.22-4.39.51-4.62,4a48.77,48.77,0,0,1-36.57,44.73c-21.55,5.81-43.62-2.24-55.71-20.32C1579.44,996.58,1578.61,995.5,1577.74,994.29ZM1702,941.38c.1-15.33-12.42-29.21-28.16-31.42-3.73-.52-5.38-.41-3.42,4.07,4.29,9.78,4.83,20.11.37,29.75-2.71,5.87-1.69,10.56.28,15.9a4.73,4.73,0,0,0,4.11,3.36A22,22,0,0,0,1702,941.38Z" transform="translate(-323.31 -109.63)"/><path class="cls-1" d="M1347.41,214.12c-1.44-6.62-2.94-13.23-4.31-19.87-3.55-17.17-14.09-26.73-31.29-29.56-3.1-.52-6.61-.78-9.81-3.32,5.91-2.56,11.9-3.12,17.62-4.59,15.4-4,21.48-15.72,25-29.67,1.38-5.53,2.69-11.08,4.52-16.62,3.28,11.91,4,24.43,11.53,34.87,8,11.11,20.52,13.09,32.62,16.46-3.29,4.26-8.07,3.32-11.85,4.18-16.81,3.82-25.77,14.65-29.46,30.74-1.33,5.77-2.47,11.59-3.69,17.39Z" transform="translate(-323.31 -109.63)"/><path class="cls-1" d="M1375.55,525.62c9.89-3.67,21.17-3.69,27.36-13.38,5.48-8.6,6.57-18.72,9.45-28.42,1.06,5.94,3,11.46,4,17.13,2.37,13,10.87,19.44,22.54,23,2.55.79,6.84.76,7,3.11.15,2.67-4.11,1.77-6.27,2.27-12.8,3-21.38,10-24.27,23.17-1.15,5.28-2.44,10.52-3.79,16.28-2.4-2.34-2.23-5.06-2.52-7.74-.85-7.73-2.94-15.19-7.24-21.67-4.5-6.8-12.18-8.56-19.45-10.61A16,16,0,0,1,1375.55,525.62Z" transform="translate(-323.31 -109.63)"/><path class="cls-1" d="M1515.21,303.29c2.35,19.92,9.34,35.69,32.33,38.57-8.61,3.78-18,5.11-23.81,12.71s-7.13,16.61-9,26c-2.29-1.32-2.36-3.23-2.3-5,.11-3.62-1.38-6.85-2.22-10.24-3.31-13.38-13-19.36-25.57-21.88a4.85,4.85,0,0,1-3.81-2.23c8.91-2.6,18.65-3.69,24.46-11.5C1510.9,322.18,1512.82,313,1515.21,303.29Z" transform="translate(-323.31 -109.63)"/><path class="cls-1" d="M568.21,464c12.92.67,25.86,7.05,36,18.84,2.58,3,4.6,4.07,8.78,3.28,12.26-2.31,22.8,2.2,32.11,10,1.67,1.39,3.16,3.6,1.45,5.5-2,2.23-3.7,0-5.22-1.43-7.05-6.43-15.37-9-24.81-8.17-3.63.3-5.39,1.22-3.57,5.51,3.21,7.57,3.13,15.44.51,23.25-.62,1.86-1.24,4-3.82,3.46-2.74-.6-2-2.89-1.71-4.75,4.15-27-20.08-52-47.42-48.74-9,1.07-15.89,5.32-19.71,13.93-.82,1.84-1.32,5.32-4.32,3.88-2.66-1.27-1.68-4.23-.75-6.62C540,470.86,551.61,463.87,568.21,464Z" transform="translate(-323.31 -109.63)"/><path class="cls-1" d="M1417.69,935.71a43.82,43.82,0,0,0-20.9,4.67c-1.72.84-4.08,2.82-5.47,0-1.21-2.41,1.2-3.73,3-4.81,9.33-5.58,19.47-6.74,30.06-5.42,24.69,3.07,45.75,23.26,47.86,45.87a34,34,0,0,1-1.42,13.56c-.73,2.29-1.9,5.37-4.71,4.57-2.27-.65-1.28-3.75-.85-5.66,4.51-19.92-8.15-38.51-23.29-46.78A46.7,46.7,0,0,0,1417.69,935.71Z" transform="translate(-323.31 -109.63)"/><path class="cls-1" d="M618.68,576.59c3.79,0,11,1.54,17.53,5.31,2.06,1.18,5.35,2.45,4,5.27-1.57,3.25-4.33.56-6.31-.34-26.31-12-58.38,1.75-66.65,28.67a39.24,39.24,0,0,0-.92,20.32c.4,1.83,1.44,4.82-1.27,5.39-2.12.44-3.47-2.11-4.13-4.13a35.54,35.54,0,0,1-.33-21.31C567.14,593,590.54,576.12,618.68,576.59Z" transform="translate(-323.31 -109.63)"/><path class="cls-1" d="M1304.19,970.32c-18.2.45-34.16-9.83-40.6-24.34-.44-1-1-2-.13-2.91a2.23,2.23,0,0,1,2.93,0c2.36,1.73,5.2,3.3,6.67,5.67,11.94,19.26,32.06,17.12,48,9.19,5.77-2.86,10.39-7.19,14.47-12.13a25.74,25.74,0,0,1,3.26-3.42,2.39,2.39,0,0,1,3-.12,2.36,2.36,0,0,1,.68,2.87A10,10,0,0,1,1341,948C1331,960.92,1318.36,969.39,1304.19,970.32Z" transform="translate(-323.31 -109.63)"/><path class="cls-1" d="M719,383.66c1.59.2,4.22-.67,4.57,1.94.38,2.87-2.33,3.08-4.37,3.4a56.47,56.47,0,0,0-22.52,8.43c-7.21,4.7-13.4,10.22-16.26,18.72-.58,1.75-1.42,4.18-3.89,3.37s-1.64-3.22-1.26-5a26.33,26.33,0,0,1,4.12-9.05C686.79,394.23,705.31,384,719,383.66Z" transform="translate(-323.31 -109.63)"/><path class="cls-1" d="M406,520.12c1-11.26,5.13-21.24,13.26-29.45a10.09,10.09,0,0,1,2-1.67c2.22-1.3,5.1-3.83,7-1.47,2.39,3-1.18,4.87-3.21,6.56-10.51,8.76-14,20.15-12.65,33.37.15,1.46.72,2.94-1.14,3.44-1.55.41-2.68-.63-3.4-1.94C406.45,526.27,406.23,523.28,406,520.12Z" transform="translate(-323.31 -109.63)"/><path class="cls-1" d="M1625.52,873.55c-.31,3.27-.46,6.28-2.15,8.89-.82,1.25-2,2.13-3.54,1.45s-.93-1.93-.8-3.17c1.43-13.43-2.11-25-13-33.71a15,15,0,0,1-2.26-2.18c-1-1.23-2.15-2.64-.86-4.21,1-1.28,2.64-.87,3.9-.23a19.58,19.58,0,0,1,4.88,3C1620.38,851.68,1624.6,862,1625.52,873.55Z" transform="translate(-323.31 -109.63)"/><path class="cls-1" d="M572.47,631.89c.38-9.87,9.56-22,18.82-24.82,2-.61,4.55-1.26,5.55,1.25s-1.67,3-3.28,3.87A28.56,28.56,0,0,0,583.2,621c-3.53,5-6,10.37-3.48,16.76.55,1.39,1.19,3.33-.75,4.17s-3.32-.54-4.38-2.05A12.68,12.68,0,0,1,572.47,631.89Z" transform="translate(-323.31 -109.63)"/><path class="cls-1" d="M1459.2,986.21a35.86,35.86,0,0,1-1.17,4.68c-.88,2.38-2.36,5.17-5.14,4.22-3.1-1.06-1-3.85-.52-5.9,1.4-6.46-1.24-11.7-5.14-16.46a32.13,32.13,0,0,0-8.48-7.07c-1.75-1.06-5.39-1.24-3.9-4.37,1.32-2.77,4.36-1.73,6.54-.58C1451.48,966.08,1458.25,973.85,1459.2,986.21Z" transform="translate(-323.31 -109.63)"/><path class="cls-1" d="M1323.07,672.89c.59.07,1.82.18,3,.37s2.53.65,2.58,2.16c.08,2-1.54,2.08-3,2.16-14,.84-24.53,7.58-32.46,18.88-1.15,1.64-2.58,4.13-5,2.3-2.11-1.6-.62-3.87.35-5.71C1293.61,683.74,1311.56,673.06,1323.07,672.89Z" transform="translate(-323.31 -109.63)"/><path class="cls-1" d="M1662.12,927.4a12.67,12.67,0,0,1-2.9,8.27c-1.12,1.25-2.59,2.12-4.19,1.16s-1.17-2.55-.56-3.8c4.79-9.81-1.72-15.85-7.4-22.07-1.83-2-4.54-2.52-7.22-2.83-1.47-.17-2.92-.74-2.74-2.54a3.18,3.18,0,0,1,2.87-2.7,10.73,10.73,0,0,1,5.69.52C1653.59,906.14,1662.42,919,1662.12,927.4Z" transform="translate(-323.31 -109.63)"/><path class="cls-1" d="M369.4,573.46c.06-8,8.73-20.35,16.22-23.09a10.73,10.73,0,0,1,5.68-.66c1.69.3,3.09,1.12,3.1,3s-1.6,2-3,2.36c-11.69,3.11-17.66,13.3-14.43,24.56.43,1.5,1.17,3.24-.73,4.17-1.66.81-3.06-.2-4.13-1.47C370,579.77,369.43,576.69,369.4,573.46Z" transform="translate(-323.31 -109.63)"/><path class="cls-1" d="M461.18,622.54c0-7,1.18-13,6.15-17.48,1.53-1.38,3.57-3.24,5.55-1.49,2.3,2,0,3.7-1.35,5.25-6.91,7.81-6.49,18.59,1.1,26.38.94,1,1.69,1.84,1,3.17-.87,1.68-2.3,1.3-3.66.79-3.56-1.33-5.65-4.08-7-7.45C461.62,628.57,461.43,625.21,461.18,622.54Z" transform="translate(-323.31 -109.63)"/><path class="cls-1" d="M1564.69,974.2a14.87,14.87,0,0,0-4.8-12.38c-1.39-1.3-3.29-2.93-1.48-4.88,2-2.11,3.95-.22,5.54,1,7.88,6.22,8.71,24.84,1.42,31.86a15.56,15.56,0,0,1-4,2.52c-1.12.55-2.46.75-3.32-.54-1-1.49-.36-2.65,1-3.54C1564.24,984.88,1564.28,979.46,1564.69,974.2Z" transform="translate(-323.31 -109.63)"/><path class="cls-1" d="M597.58,383.47c-2.11-.39-3.32-.62-4.53-.83-9.85-1.72-17.6,1.26-22.92,10-1,1.62-1.66,4.8-4.32,3.52s-1.22-4.06-.37-6.08c4.56-10.83,21-17,31.41-11.85,1.61.8,3.38,1.66,2.9,3.8A2,2,0,0,1,597.58,383.47Z" transform="translate(-323.31 -109.63)"/><path class="cls-1" d="M1442.89,729.73c10.23,0,17.51,4.08,22.54,12.21,1,1.65,1.89,3.47,1.57,5.46-.38,2.31-1.69,3.09-3.63,1.38a10.38,10.38,0,0,1-1.77-2.6c-5.38-9.28-13.49-12.26-23.74-10.3-.69.13-1.38.25-2.07.4-1.58.34-3.44.79-4-1.19-.53-1.81,1.08-2.8,2.53-3.52A21.17,21.17,0,0,1,1442.89,729.73Z" transform="translate(-323.31 -109.63)"/><path class="cls-1" d="M1635.23,1003.53c-.53,0-1.06,0-1.59,0-1.79-.17-3.91-.42-4-2.59s2-2.72,3.79-2.77c7.4-.21,11.8-4.7,15.38-10.48a15.38,15.38,0,0,0,2-7c.13-1.43.33-3,2.12-3.17,2-.15,2.51,1.52,2.88,3.12a15.23,15.23,0,0,1-1.55,10.23C1650.43,998.77,1644.2,1003.26,1635.23,1003.53Z" transform="translate(-323.31 -109.63)"/><path class="cls-1" d="M396.07,650.43c-11-.24-20.9-10.08-20.67-20.38.05-2.16-.23-5.25,2.7-5.57,3.18-.35,2.4,2.79,2.74,4.67,1.43,7.9,8.12,14.67,15.72,15.73,2.19.31,5.48-.08,5.23,3C401.52,651.05,398.08,650.2,396.07,650.43Z" transform="translate(-323.31 -109.63)"/><path class="cls-1" d="M962.1,1046.62c12.15-23.13,24.65-28.9,48.82-22.53-5.44-7.54-11.88-12.08-20.35-13.81-2.59-.53-6.79-.34-6.14-4.06.62-3.55,4.63-2.34,7.19-1.85,16.1,3,24.94,14.19,30.83,28.32a56.59,56.59,0,0,1,2.12,39.23c-7.74,25.85-10.58,52.4-10.65,79.32,0,10.75-.28,21.5-3.62,31.89-3.94,12.24-12,20.06-24.71,22.75-7,1.48-12.91-.59-17.55-6a43.93,43.93,0,0,1-9.42-18.69c-.33-1.35-.27-3.1-1.93-3.44-1.83-.38-2.14,1.52-2.8,2.62-4.12,7-8,14.12-12.93,20.55-7.26,9.39-17.3,8.86-23.52-1.33-5-8.26-5.93-17.58-6.52-26.93-.63-10-1.1-20-1.74-30.07-.61-9.57-4.34-18-9.35-26.07-5.13-8.21-10.36-16.35-14.52-25.15-8-16.94-8-34.37-3.57-52.11a25.86,25.86,0,0,1,2.43-5.84c6.84-12.77,16.6-15.49,28.21-6.87,7.22,5.36,14.43,7.75,23.46,7.05C946.52,1032.79,955.25,1037.71,962.1,1046.62Z" transform="translate(-323.31 -109.63)"/><path class="cls-1" d="M741.84,1370.93c2.48-4.71,6.62-5.54,10.35-6.83,6.19-2.15,12.75-2.56,19.19-3.53,4.37-.66,8.76-1.38,12.79-3.16a134,134,0,0,1,31.7-9.78,16.6,16.6,0,0,0,8.6-3.84c16.49-15.14,37-21.18,58.09-26.15,18.33-4.32,36.83-8,54.76-13.87a6.14,6.14,0,0,1,6,.77c-3.41,4.61-8.5,6.18-13.41,7.55-13.74,3.84-27.58,7.29-41.37,10.92-10.89,2.87-21.94,5.2-32.44,9.42a68.49,68.49,0,0,0-34,28.87c-4.45,7.39-9.13,14.64-13.73,21.94a50,50,0,0,1-3,4.37c-.84,1.08-1.88,2.75-3.32,2.06-1.75-.84-.38-2.44,0-3.67,3-9.1,7.52-17.44,12.14-25.76.78-1.41,2.68-3,1.2-4.69-1.14-1.29-3-.18-4.51.17-4.45,1.06-9.19,1.65-13.18,3.68-13,6.61-27,9-41.25,10.16C751.78,1369.94,747.26,1372,741.84,1370.93Z" transform="translate(-323.31 -109.63)"/><path class="cls-1" d="M1048.47,1681.75c-11.64.08-18.32-6.22-17.74-17.88a61.25,61.25,0,0,1,17.2-39.85,15.44,15.44,0,0,1,11.2-5.23c15.7-.19,30.41,3.35,43.36,12.57,5.79,4.12,6.84,8.25,2.92,14.08-12.31,18.29-28.2,31.8-50.63,35.94a19.39,19.39,0,0,1-2.62.35C1050.93,1681.79,1049.7,1681.75,1048.47,1681.75Z" transform="translate(-323.31 -109.63)"/><path class="cls-1" d="M1021,1722.39c-15.92-1.07-30.69-5.17-42.67-16.5a15.48,15.48,0,0,1-2.55-3.3,1.94,1.94,0,0,1,.33-2.42,1.91,1.91,0,0,1,2.42-.27,29.44,29.44,0,0,1,3.07,2c14.13,10.25,29.81,15.35,47.36,14.32,2-.11,5.2-.88,5.69,1.28.62,2.73-2.74,3.1-4.75,3.85C1027,1722.42,1024,1722.34,1021,1722.39Z" transform="translate(-323.31 -109.63)"/><path class="cls-1" d="M728.91,1647.85c-12.61,3-24.63,6.42-35.85,12.08-3.14,1.58-6.14,3.44-9.25,5.08-1.29.68-2.86,2.33-4.11.41-1.08-1.66.51-2.94,1.69-4a39.72,39.72,0,0,1,4.22-3.17c11.38-7.39,24-11.6,37.09-14.87C726.3,1642.51,727.32,1644.76,728.91,1647.85Z" transform="translate(-323.31 -109.63)"/><path class="cls-1" d="M737.67,1796c0-1.91,0-3.7,1.56-4s2.42,1.23,3,2.55c2,4.66,3.77,9.47,6.1,14a62.6,62.6,0,0,0,15,18.88c1.39,1.19,3.88,2.51,2.46,4.56s-3.88.74-5.66-.34c-7.93-4.82-13.22-11.94-17.18-20.17C740.5,1806.35,738.35,1801.17,737.67,1796Z" transform="translate(-323.31 -109.63)"/><path class="cls-1" d="M1089,1613.6a43,43,0,0,1,25.36,12.61c1.26,1.27,3.16,3.1,1.28,4.92-1.59,1.54-3.26-.15-4.56-1.25-6.84-5.77-15-8.92-23.24-11.94-1.46-.53-3.45-1.16-3-3S1087.41,1613.63,1089,1613.6Z" transform="translate(-323.31 -109.63)"/><path class="cls-1" d="M1263.93,1579c2.68-15.27,4.19-33.24,14.92-48.63,4.93-7.06,13.85-10.7,22-6.93,9.4,4.32,19.53,7,28.38,12.67a53.42,53.42,0,0,1,10.32,8.92c4.91,5.24,4.2,10.72,1.11,16a137.45,137.45,0,0,1-37.38,41.83,38.86,38.86,0,0,1-23.66,7.8c-5.56,0-9.32-2.55-11.6-7.55C1264.91,1596.17,1264.27,1588.83,1263.93,1579Z" transform="translate(-323.31 -109.63)"/><path class="cls-1" d="M1176.62,1636.91a6,6,0,0,1,3.7,2.55,215.69,215.69,0,0,0,18.47,20.91c1.39,1.43,3.48,3.36,1.78,5.25-1.89,2.11-3.9-.13-5.4-1.39-7.58-6.36-14.5-13.33-19.07-22.25C1175.22,1640.28,1174.08,1638.18,1176.62,1636.91Z" transform="translate(-323.31 -109.63)"/><path class="cls-1" d="M1197.18,1630.35a5,5,0,0,1,4.17,1.68,280.26,280.26,0,0,0,22,18.91c1.32,1,3.77,2.55,2.19,4.53-1.2,1.51-3.32,0-4.77-.89a97.79,97.79,0,0,1-22.86-19.33c-.94-1.09-1.79-2.22-1.28-3.78C1196.85,1630.73,1197.41,1630.35,1197.18,1630.35Z" transform="translate(-323.31 -109.63)"/><path class="cls-1" d="M607.75,1514.33c.65,6.66-1.62,13.06-3.62,19.4-3.88,12.25-5,24.79-4.77,37.5.1,6.9-.12,13.73-2.23,20.36-2.46,7.68-7.75,10-15.2,7.06-14.13-5.48-24.41-15.75-34-26.91a17.68,17.68,0,0,1-3.53-7c-5.56-22.57-3.49-44,10.12-63.53,8-11.51,24.07-18.17,35.78-15.63,8.68,1.89,14,6.65,15.82,15.52C607,1505.41,608,1509.68,607.75,1514.33Z" transform="translate(-323.31 -109.63)"/><path class="cls-1" d="M552.63,1439.23c-.49,1.47-1.73,2.18-3,2.87-16.41,9.28-30.14,21.9-43.64,34.82-1.22,1.16-2.48,3.31-4.32,2s-.4-3.3.52-4.65c11-16.27,24.74-29.21,43.43-36.23a17.6,17.6,0,0,1,4.6-1A2,2,0,0,1,552.63,1439.23Z" transform="translate(-323.31 -109.63)"/><path class="cls-1" d="M709.83,319.55c13,2.42,24.34,8.47,32.62,19.65a9.79,9.79,0,0,1,1.4,2.82c.45,1.35.71,2.88-.72,3.81s-2.72.07-3.67-1.05-1.87-2.54-2.85-3.79a42.72,42.72,0,0,0-27.86-16.47c-2.07-.33-6,1.4-5.68-2.44C703.31,319.07,707,320.2,709.83,319.55Z" transform="translate(-323.31 -109.63)"/></svg>